<mxfile host="app.diagrams.net" modified="2023-11-13T07:38:40.219Z" agent="Mozilla/5.0 (Macintosh; Intel Mac OS X 10_15_7) AppleWebKit/537.36 (KHTML, like Gecko) Chrome/119.0.0.0 Safari/537.36" etag="hQxWVmrUfBTkGcNmSuQV" version="21.3.2" type="github">
  <diagram name="第 1 页" id="iIydoYlXSEYhZG8q-C_A">
    <mxGraphModel dx="1193" dy="758" grid="1" gridSize="10" guides="1" tooltips="1" connect="1" arrows="1" fold="1" page="1" pageScale="1" pageWidth="827" pageHeight="1169" math="0" shadow="0">
      <root>
        <mxCell id="0" />
        <mxCell id="1" parent="0" />
        <mxCell id="49JLv81aL3xaGzIu4lqN-8" value="" style="shape=image;imageAspect=0;aspect=fixed;verticalLabelPosition=bottom;verticalAlign=top;image=data:image/png,iVBORw0KGgoAAAANSUhEUgAAApcAAAKFCAYAAACZcsIBAAAABmJLR0QA/wD/AP+gvaeTAAAgAElEQVR4nOzdeVyNef8/8NdpI620kqioJEsohMSdLWtGoZJqLDMGYxvMMCbMwhjLGDNjkGTmtiQzxpolxlIUIVlCIS1EoZqK1uv3x3w7v+lGlq7Tdcrr+Xj0GF3nOp/P6zJ69z7XKhMEQQARERERUfWFq0idgIiIiIjqDjaXRERERCQaNpdEREREJBo2l0REREQkGjaXRERERCQaNpdEREREJBo2l0REREQkGjaXRERERCQaNpdEREREJBo2l0REREQkGjaXRERERCQaNpdEREREJBo2l0REREQkGjaXRERERCQateq8eeXKlThz5oxYWYiIJDNz5kw4OztXuc6ZM2ewcuXKGkpERCSN16mHVanWnsszZ84gJiamOkMQEUlu586dSEtLe+V6aWlp2LlzZw0kIiKSxuvWw6pUa88lAHTt2hXh4eHVHYaISDIymeyN1mfNI6K66k3r4YvwnEsiIiIiEg2bSyIiIiISDZtLIiIiIhINm0siIiIiEg2bSyIiIiISDZtLIiIiIhINm0siIiIiEg2bSyIiIiISTbVvov66xLgpJxHRm/D09JTshudeXl58mg8RKY2arIc11lwCwPTp06v1rEoiote1atUqqSOga9eumDFjhtQxiOgdV9P1sEabS2dnZ4wcObImpySid5QyPKKxadOmrHlEJLmaroc855KIiIiIRMPmkoiIiIhEw+aSiIiIiETD5pKIiIiIRMPmkoiIiIhEw+aSakx6ejqCgoLQrFkzPHv2TNSx7969i/nz58PCwkLUcYmIxMD6R+8SNpekUEVFRfI/37p1C1FRUUhLS4MgCKLOc/v2bRw/fhzp6elvlEkMYo9HRHUD6x+9q9hckkLNnz8f5eXlAABXV1f07NlTIfP07t0b3bt3f+NMYhB7PCKqG1j/6F3F5pIU5vLly/jll18qLVNXV1fYfK8z9osyVYfY4xFR3cD6R++yGn1CDymflJQUbNq0CZ9++ikePHiA0NBQmJiYwNvbG/r6+rh16xbCw8OhoaGBwMBANGzYsNL78/LyEBYWhsTERFhZWSEgIADa2tqIjo6Gj48PCgoKsH37dqirq8PLy0v+PplMhsTERISFhcHCwgK+vr6VimNRURFOnDiBEydOoEmTJhgwYABatGhRae6SkhLs2rULFy9eRK9evZ779FxQUIAVK1Zg1KhRsLW1rTLTy7ajQlRUFCIiImBubg4VFRVMnDjxldtIRMqN9Y/1jxSDey7fYdu3b4eLiwsWL16M/fv344svvkBycjKmTp2KcePG4eTJk/j8889x5coVzJ07F2PGjKn0/qSkJIwZMwbNmzeHv78/1q1bBwcHB+Tk5EAQBLi4uAAA9PT0oKenV+m9Bw8exNKlS3Hnzh0EBgbiu+++k7/27NkzDBgwAE+ePMHs2bMhCAI6dOiAP/74Q75Obm4u3N3dkZiYiNmzZ+PBgwdYuXJlpTlOnz6NoKAghISEAMBLM1W1HQAwd+5cpKamYv78+dDX18esWbOqHI+IlB/rH+sfKZBQDZ6enoKnp+drrQtACAsLq850pACLFi0SAAi7d++WL/voo48EAMKvv/4qX/b5558LAITc3Fz5sr59+wq7du2Sfx8RESEAEBYsWFBp7PLycvk6X3/9tQBA+P333+XLhg4dKlhYWMi/9/HxEQIDAyvl9PT0FDQ1NYW0tDR5Rg8Pj0rrDB48WFBVVZV/X1paKuzevVt49OjRc9v770xVbUdxcbFgYGAg3LhxQ/76tGnTqhyPlIMi6lNYWJjwumXzTeYnabD+sf69K2q4X9vBw+LvuIpDH/8+0bx9+/YAgB49esiXtWrVCgCQkZEBXV1d3L9/H0eOHIGDgwNiY2MBAPn5+XB0dERhYeEr5x04cKD8zy1atMDRo0cBAIWFhQgPD8eKFSsqrT9p0iTs3LkTmzZtwgcffIANGzZg9erVldZp164dIiIi5N+rqqpi6NChVeZ41Xaoq6tDR0cHffr0wbp16+Du7o758+e/cvuISPmx/rH+kWKwuXzHqaj8c2aETCaTL6tXr95z62loaAD45zwf4J9DKQAwZ84cGBoaViuDurq6fNzTp0+jpKQEamqV/2laW1sDAG7evIlLly6hpKQEpqamldb59za8rtfZjh9//BF+fn4YOHAgnJ2dERoaCiMjozeei4iUC+sf6x8pBs+5pLdSUWwvXLjw3Gt///33W49bVlYG4J8i+28Vhc/GxkY+/v379996ngqvsx2DBg1CcnIypk+fjvPnz8PR0RGJiYnVnpuIaifWP9Y/qhqbS3ortra2UFVVRVBQEIqLi+XLs7KysGXLlkrrVhTM19GhQwfUq1cP0dHRlZZnZWUBAFxcXOSHqP59CKjC695vrSLTq7ajoKAAGzZsQKNGjbBq1SocP34c+fn52LZt21tvIxHVbqx/rH9UNTaX77j8/HwA/9y2okLFIZqnT5/Kl5WWllZar2HDhvjwww8RExMDV1dXbN26FaGhofD19YW3tzcAyA+dnD9/HqdOncKzZ8/k5yP9+7yksrIylJSUoLi4GMbGxpg6dSru3LmDv/76S77On3/+CS8vL7i6uqJ169YYMGAA9u3bh9DQUABAcXEx4uPjIQgC0tLSUFpaiszMTIwcObJSof7fTJqamlVuR3l5OYKCguSPa3N2doa1tbV8nBdtIxHVDqx/rH+kINW5HIhXi9duhw8fFtq0aSMAED788EPhxo0bwoEDBwQnJycBgDBmzBghISFBOHbsmNCjRw8BgODp6Slcu3ZNEARBKCgoEMaOHSsAEAAIurq6la46vH37tmBiYiI0bNhQCA4OFvbs2SO0atVKACBMnjxZSE5OFrZv3y5YWVkJAIQ5c+YI2dnZQllZmTBz5kzByMhImDt3ruDv7y+MHDlSePr0qXzszMxMwcXFRQAg2NjYCEOHDhXGjBkjaGtrC1OmTBHS09OFyMhIAYAQFBT00kyv2o68vDxBU1NTaNu2rfDDDz8ICxcuFAIDA4Xi4uKXjkfKgVeLU1VY/1j/3iU1fbW47P8GeisVN0wNDw9/5boymQxhYWEYOXLk205HSio7Oxupqamws7ODpqZmpddKSkpQWlr63PLX8fTpU1y/fh12dnaoX7/+C9e5desWysrKYG1tjZSUFBgYGEBXV1f+elJSElq0aCE/cb+qTC/aDkEQ8PTpU5SVlSEpKQk2NjaVbi5c3W0kxVFEfdqxYwdGjRr1Ws+GfpP5qfZi/WP9qw1quF8L59XiVG2GhoYvvdJQXV39rR95pqmpiQ4dOlS5zr+fWmFpafnc6xVXWb5Ophdth0wmQ4MGDQAAHTt2fGGG6mwjEdVurH+sf/Q8nnNJRERERKJhc0lEREREomFzSURERESiYXNJRERERKJhc0lEREREomFzSURERESiYXNJRERERKJhc0lEREREomFzSURERESiYXNJRERERKJhc0lEREREomFzSURERESiYXNJRERERKJhc0lEREREomFzSURERESiYXNJRERERKJhc0lEREREomFzSURERESiUZM6gDIrKyvDrVu3kJqainv37uHevXt4/PgxcnNzIQgCcnJyAAD6+vqQyWTQ09ODgYEBmjRpgiZNmsDc3BwtWrSAqqqqxFtCRPR67t+/j9u3b8tr3oMHD5Cbm4vS0lLk5+ejpKQEDRo0QL169aCpqQl9fX15zTMzM4ONjQ20tLSk3gwikhCby/8jCAKuXr2K48ePIzY2FlevXsW1a9dQVFQEAKhfvz4aN24MIyMj6OrqQiaTQV9fHwBw584dAEBeXh6ysrJw//59PHv2TP4+Ozs72Nvbo2vXrnB1dYW9vT1kMpk0G0pE9H8yMzNx4sQJREVF4fLly7h8+TIeP34MAFBRUYGJiQlMTEzQsGFDqKqqQltbG+rq6sjKykJxcTGePn2KJ0+eICMjA7m5uQAAmUwGS0tLtGnTBh07doSrqyu6dOkCTU1NKTeViGrQO91c5uXlISIiAn/88QeOHj2KR48eQU9PD87Ozujbty+mT5+ONm3aoHnz5jAwMHijsR89eoSUlBRcvXoVV65cQUJCAubNm4e8vDwYGhrCzc0N7733Htzd3aGjo6OgLSQi+v/Ky8sRHR2NXbt24cCBA7hx4wbU1NTQsWNHdOjQAZ6enrC3t4eNjQ1MTEygpvb6vyIKCwuRnp6Oa9eu4erVq7h8+TI2b96MhQsXol69eujatSuGDRuG4cOHw8LCQnEbSUSSe+eay/Lychw8eBDr16/HwYMHUVZWBldXV8yfPx+urq5o3769KIexDQwMYGBggE6dOsmXlZWVIT4+HidPnsT+/fvh6+sLNTU1uLu7Y+LEiejXrx9UVHgaLBGJ6/r161i3bh22bduGBw8eoFWrVvDw8EDv3r3RvXt3aGtrV3uOBg0awMbGBjY2NvDw8JAvT0tLw/HjxxEZGYkvv/wSM2fORKdOnRAYGIgxY8ZAT0+v2nMTkXJ5ZzqZ/Px8fPfdd2jRogUGDx6MvLw8/PLLL8jMzERkZCRmzJiBjh07KvT8SFVVVXTq1AkzZsxAZGQkMjMzsXbtWuTk5GDgwIFo2bIlli9fjvz8fIVlIKJ3gyAI2Lt3L/7zn/+gdevW2L17NyZPnoxr164hMTERS5cuRf/+/UVpLKtibm4OPz8/bN68GQ8ePMDhw4fRvn17zJ07F2ZmZpg4cSKSkpIUmoGIaladby7z8/OxZMkSWFpa4ssvv8R7772HxMREHDt2DAEBAW98uFtMBgYGCAgIwLFjx3Dt2jUMGzYMixYtgpWVFb799lsUFBRIlo2Iaq/du3fD0dERw4YNg7a2Ng4cOIDk5GQsWLAAdnZ2kuVSV1dH3759sXHjRmRkZGDJkiU4ceIEWrduDX9/fzaZRHVEnW4u9+7dC3t7e3zzzTfw8fFBUlISVqxYAVtbW6mjPadVq1ZYtWoVUlJS8NFHH2HJkiWwsbHBr7/+KnU0IqolkpKS0L9/fwwfPhxNmjTB2bNnsWfPHgwYMEDpTrnR09PD1KlTkZiYiK1bt+Ls2bOwt7fHtGnT8Pfff0sdj4iqQbmqjUjS09PRv39/DBs2DH369MGdO3ewevVqmJiYSB3tlQwMDLBw4UIkJSWhX79+CAgIwIABA5Ceni51NCJSUqWlpfjiiy/Qpk0bZGVl4cyZM9i7dy8cHR2ljvZKKioq8PLywpUrV7Bq1Sr8+uuvaNOmDQ4dOiR1NCJ6S3Wuudy9ezccHByQmpqKU6dOYePGjTA0NJQ61hszMjLCpk2bcPLkSdy9excODg7Yu3ev1LGISMmkpKSgZ8+eWLFiBb777jucO3cOXbp0kTrWG1NVVcXkyZNx/fp1dOvWDe7u7pgzZw5KSkqkjkZEb6jONJeCIGDevHkYPnw4PDw8EBcXh+7du0sdq9p69OiBuLg4DB06FMOGDcOCBQsgCILUsYhICRw7dgwdOnRAfn4+zp07h48//rjWP7TBxMQE27ZtQ0hICH7++Wf06tULjx49kjoWEb2BOtFclpSUICAgAMuXL0dISAiCg4Pr1BMitLS05Nv17bff4v3330dpaanUsYhIQtu3b8fAgQMxYMAAnD17Fq1bt5Y6kqgCAgJw7tw53Lt3Dz169EBKSorUkYjoNdX65rKsrAze3t7YtWsX9u3bh4CAAKkjKcz777+P3bt3Y+fOnfDx8UF5ebnUkYhIAv/973/h6+uLyZMnY8uWLahfv77UkRTCzs4Op0+fhqamJlxcXJCamip1JCJ6DbW+ufzoo49w4MABHDhwAP369ZM6jsK5u7tj//792Lt3L6ZMmSJ1HCKqYQcOHMD777+P2bNnY8WKFUp3FbjYGjdujGPHjqFRo0bo378/srOzpY5ERK9Qq6vSqlWrEBISgrCwMPTo0UPqODWmZ8+e2LZtG9avX481a9ZIHYeIasiNGzcwcuRI+Pn5YcmSJVLHqTH6+vo4ePAgioqK4OXlhbKyMqkjEVEVam1zeeXKFcybNw+LFy/GkCFDpI5T4zw8PBAUFITZs2cjPj5e6jhEpGAlJSUYO3Ys7OzssHbtWshkMqkj1ajGjRtjz549iI2NxdKlS6WOQ0RVqJXNZWlpKby9veHs7Iy5c+dKHUcy8+bNQ9euXeHv789P8kR13JdffonExERs374dGhoaUseRRJs2bbB06VIsXLgQCQkJUschopeolc1lcHAwbt68iXXr1tX5842qoqqqipCQEFy/fh2hoaFSxyEiBcnIyMCKFSuwcOFCtGjRQuo4kpo6dSqcnJwwZ84cqaMQ0UuoSR3gTT179gyLFi3CpEmTYG1tXa2xoqOjcefOHfn3MpkM9erVg66uLtq0aYMmTZpU+f6MjAyEh4cjKSkJBgYG6NWrF5ydnZGamoqysrIX3hokNTUVixYtwrp166CmVv2/fisrK0yYMAFffPEFxowZg3r16lV7TCJSLgsXLoSJiQkmT55c7bFqe92TyWRYsmQJevXqhWPHjuE///lPtcYjIvHVut1+u3btQnZ2Nj799NNqj9WtWzcYGRlh7NixmDFjBh4/foz09HTMmzcP5ubmmDlzJp4+ffrC9y5ZsgRdu3ZFUVERJk6ciGnTpqGkpATu7u5wcXHBzZs3n3tPeXk5/P39ERISIuph7M8++wwPHz7E7t27RRuTiJRDbm4utm7dijlz5ojy4bEu1D1XV1e4uLhg7dq1ooxHROKqdXsuQ0JCMGjQIJiamlZ7LJlMhv79+6Nhw4YwMjLC1KlTAQDTp0+Hr68vVq1aBX19fXzxxReV3vf9998jKCgIf/31V6WnAPXv3x+urq7o1asXnjx58tx8K1euRFZWVrVz/y8zMzMMGDAAISEhGDlypOjjE5F0wsLCIAgCvL29RRmvrtS98ePHY8KECcjOzq6Vj/glqstq1Z7L/Px8HD9+XLQiW+FFJ8ePGzcOwD9Pwfi3bdu2YcaMGfjyyy9f+HjJ+vXrY82aNXj8+HGl5QkJCbhw4QJ8fHxETP7/+fj44OjRoygoKFDI+EQkjb1792LQoEHQ09MTddzaXvdGjBgBmUyGQ4cOiT42EVVPrWouY2JiUFpaWiP3tNTV1QUAWFpaVlr+1VdfAQAGDhz40vc6OTnBxcVF/n1RURFmz56NNWvWKOz2Ia6urigtLcXZs2cVMj4R1TxBEBATE1OpnihSbap7Wlpa6NixI06fPi362ERUPbWquTx//jzMzc1hZmam0HnKy8vxzTffAAAmTJggX56cnIxr165BTU0Ntra2VY7RuXNn+Z/nzZuHTz75BAYGBooJDKBJkyYwMzNDXFycwuYgopp1584dZGdno0uXLgqfqzbWvS5duuDcuXMKG5+I3k6tOucyMzMTTZs2VcjYeXl52Lx5M9LS0rBt2zbo6OggPDwcHh4e8nVSUlIAAC1btnzt+8wdPXoUANC3b1/RM/+vpk2b4sGDBwqfh4hqRmZmJgCw7r2EmZkZax6REqpVzeWjR48U9ilYXV0dLVu2xJ49e3Dt2jXs37//uUNAb3oLjSdPnmDFihXYtWuXmFFfytDQkM/dJapDHj16BABo1KiRQsav7XXP0NBQIRcLEVH11KrmUiaTQRAEhYytqamJ7t27w97eHufPn0dAQAASEhIqXZVecV/NpKQkPH36FJqamlWO+dlnn0Emk+Gzzz6TL6s4J3LOnDlwcHBAYGCgaNsgCMI790g4orpM0T/Ptb3uCYLwTj9Ig0hZ1aqfSgMDA/kneUXR19fHli1b8PjxY/j7+1dqZs3MzGBvb4+ysjJcuXKlynEEQYCBgQGKioqQkJAg/6o4zHX58mX54Sax8JYcRHVLxZEa1r0XY80jUk61qrk0NTVFRkaGwufp3r07vvjiCxw+fBjLly+v9NqiRYsA/PMJvLi4+IXvz8rKwqZNm/D1118jMjKy0lfFrT4iIiLkY4klIyMDJiYmoo5JRNKp+HlOT09X+Fy1se6x5hEpp1rVXDo6OiItLU3UQltaWors7Gzk5eVVWj5//ny4uLjgs88+w/79++XLR4wYga+++gonTpzAhAkTnruvZGpqKpYuXQo/Pz/RMr6O1NRUZGRkwMnJqUbnJSLFsbS0hJGREWJiYkQdt67UvZiYGNY8IiVUq5rLzp07Q01NDdHR0aKMd+rUKYwePRqlpaXIyMjApEmT5Le1UFVVxZYtW6CrqwsPDw8MHz4ckZGRAP4pwOHh4bhw4QKMjIzQq1cvTJkyBRMnTsSmTZuwZMkSqKuri5LxdUVFRUFdXR2Ojo41Oi8RKY5MJkPXrl0RFRUl2ph1pe4VFBTg4sWLcHZ2rrE5iej11KoLerS1tdG7d29s3boVo0aNqvZ4Li4uVd6c2Nzc/LknTlQYMWIERowYgYKCAly+fBktW7Z8rXN/Pvvss0onuotly5YtcHNzg5aWluhjE5F0Bg8ejOnTp+PJkydo2LBhtcerK3UvPDwcANCvXz9RxyWi6qtVey4B4P3338eBAwdw//59qaMA+OcpEV27dpX0pPL09HQcOnQI77//vmQZiEgxRo8eDRUVFWzbtk3qKHLKUPc2btyIYcOGwcjISLIMRPRita659PDwgJGREZYsWSJ1FKXxzTffwNTUFMOGDZM6ChGJTFdXF76+vvjuu+/w7NkzqeMohb/++gtRUVH46KOPpI5CRC9Q65rL+vXrY9GiRfjll1+QlJQkdRzJ3bx5E8HBwVi8ePFrPz2DiGqXoKAgZGVl4ccff5Q6iuQEQcCcOXPg7u6OXr16SR2HiF6g1jWXwD+Hxm1tbTFhwgSUlZVJHUcyZWVlGD9+POzs7ODv7y91HCJSkCZNmmDmzJlYvHgxkpOTpY4jqdWrVyM+Ph5Lly6VOgoRvUStbC5VVVWxbds2xMbGvtMF5quvvsLZs2exefNmqKqqSh2HiBRowYIFsLOzw+jRo196r8m67vLly/jss8+wcOFCtGvXTuo4RPQStbK5BIA2bdpg6dKlCAoKwu7du6WOU+P++OMPfPnll1ixYgUcHBykjkNECqauro7ffvsNN27cwAcffKCwR+Eqq3v37mHo0KFwdnZWyB03iEg8tba5BIBp06ZhwoQJ8Pb2xsmTJ6WOU2OOHz8OX19ffPjhh5g8ebLUcYiohtjY2CA8PBxbtmzB3LlzpY5TY548eYIBAwZAU1MT4eHhfJ44kZKr9T+hP/74IwYNGoRBgwbh4MGDUsdRuP3792Pw4MEYOnQofvjhB6njEFENGzBgAEJDQ7FixQrMmDED5eXlUkdSqHv37qF3797IycnBoUOH5M9bJyLlVeubS1VVVWzduhWenp4YOnQoNm7cKHUkhdmwYQM8PDwwatQobNmyhZ/eid5RPj4+2LZtG9auXYvRo0fj6dOnUkdSiKtXr6Jbt24oLi7GqVOnYG5uLnUkInoNdaI7UVdXR0hICObOnYsJEyYgMDDwuWff1mb5+fkICAjABx98gPnz5yM4OBhqarXq4UpEJLKRI0fi0KFDiIyMhJOTE65evSp1JFGFhISgS5cuMDc3R1RUFJo3by51JCJ6TXWiuQT+eQbvl19+id27d2Pfvn1wdHQU9Xm8Ujl16hQcHR2xf/9+7N27FwsXLoRMJpM6FhEpAVdXV1y8eBF6enpwcnLC6tWra/3t2TIzMzF69GiMHz8eU6ZMwbFjx9CoUSOpYxHRG6gzzWWFIUOGID4+HhYWFujZsycCAwORlZUldaw39uDBAwQEBMDV1RWWlpaIj4/HoEGDpI5FREqmefPmOHHiBGbPno05c+bA0dERZ86ckTrWGystLcWaNWvQqlUrxMTE4ODBg1i6dCnU1dWljkZEb6jONZcAYGZmhoiICOzevRt//fUXrKysMG3aNDx48EDqaK+UnZ2NhQsXwtbWFpGRkQgNDUVERATMzMykjkZESkpNTQ2LFi3C1atXYWpqim7duqFv3744d+6c1NFeqby8HOHh4WjTpg1mzZoFf39/XLlyBf369ZM6GhG9pTrZXFYYMmQIrl69ii+++ALbtm2DtbU1pk+fjsTERKmjPefatWv4+OOPYWlpibVr12LBggW4efMmxo4dK3U0IqolWrZsiYiICOzbtw+5ubno0qULBg8ejP379yvd4fInT55g9erVsLW1hY+PD7p164br169j9erV0NbWljoeEVVDnW4uAUBLSwuzZ8/GnTt3EBQUhH379qF169ZwdXVFcHAwsrOzJcuWnZ2N4OBg9OzZE/b29jhw4AAWLVqE27dvY9asWWjQoIFk2Yio9ho0aBDOnj2Lffv24dmzZxgyZAisrKywcOFCXLlyRbJcxcXFOHjwIAICAmBmZoYFCxbAzc0N169fR0hICKysrCTLRkTiqfPNZQUtLS3MmjULN2/exMGDB2FkZISPP/4YpqamcHNzw8qVKxEXF6fQT/elpaWIi4vDypUr8Z///AempqbyDIcPH8bNmzcxc+ZMaGlpKSwDEb07Bg4ciMjISNy4cQNeXl7YsGED2rZtC1tbW8ydOxcRERH4+++/FZohJSUFv/76K/z8/GBiYoKBAwciMTERq1atQkZGBn755Re0aNFCoRmIqGa9c/ezUVFRQf/+/dG/f3/k5+cjIiICf/zxB5YuXYpZs2ZBR0cHXbt2Rfv27dG6dWu0bdsWzZo1g7Gx8RvN8/DhQ6SmpuLy5cu4evUqLl26hNjYWPz9998wMjJCnz59sH37dri7u7OZJCKFsra2xvLly7Fs2TLExMTgjz/+wN69e7Fs2TKoqqrCwcEBHTt2hL29Pdq0aQMbGxuYmpq+0cU0BQUFSE1NxbVr13D16lVcuXIFsbGxSE1NRb169eDs7IyFCxdi+PDhaNasmQK3loik9s41l/+mra0NLy8veHl5QRAEXLt2DSdPnkRsbCz++usv/PTTT/KbE9erVw+mpqYwNDSEvr4+ZDIZ9PX1AQA5OTkQBKDUIbgAACAASURBVAE5OTnIyspCZmYmiouLAQCamppo3bo12rRpg2XLlqFnz56ws7Pj7YSIqMapqKigW7du6NatG5YvX44HDx7g1KlTiIqKwuXLl/Hnn3/K764hk8lgYmICExMT6OnpQUNDA1paWtDQ0EB+fj5KSkqQn5+P3NxcpKeny/eAqqiowMrKCm3btsX48ePh6uqKzp07o379+lJuOhHVoHe6ufw3mUwGe3t72NvbY9KkSQCAsrIy3LlzB2lpacjIyMD9+/fx6NEjeTMZHR0NAOjevbu82TQwMEDjxo1hZmYGc3NzWFlZ8Uk6RKSUTExM4OnpCU9PT/myhw8fIjk5GZmZmUhPT8fDhw+Rl5eHoqIi3LlzBzExMXB3d4eGhgZ0dHSgo6ODpk2bwtTUFE2bNoW1tTXPFyd6x7G5rIKqqipatmyJli1bvvD1kSNHAgDWrVtXk7GIiBTG2Nj4pacB7dixA6NGjcKmTZtqOBUR1SbcpUZEREREomFzSURERESiYXNJRERERKJhc0lEREREomFzSURERESiYXNJRERERKJhc0lEREREomFzSURERESiYXNJRERERKJhc0lEREREomFzSURERESiYXNJRERERKJhc0lEREREomFzSURERESiYXNJRERERKJhc0lEREREomFzSURERESiYXNJRERERKJhc0lEREREomFzSURERESiYXNJRERERKJhc0lEREREomFzSURERESiYXNJRERERKJhc6kAd+/exfz582FhYfHG73348CGWLVuGESNGYPDgwTh06JD4AYmIRMSaR0T/xuZSAW7fvo3jx48jPT39jd5XWFiI9957D2PGjMGOHTugpqYGLy8vFBcXKygpEVH1seYR0b+xuVSA3r17o3v37m/8vj///BN3795FkyZNoKqqiu3bt+PgwYPQ0NBQQEoiInGw5hHRv7G5VBB1dfU3fs/FixdRv359+ff169dHt27dxIxFRKQQrHlEVEFN6gB1RUlJCXbt2oWLFy+iV69eKC8vf26dvLw8hIWFITExEVZWVggICIC2tjbu37+P48ePIzo6GgUFBdi2bRsAwNvbu6Y3g4jotbDmEdHLcM+lCHJzc+Hu7o7ExETMnj0bDx48wMqVKyutk5SUhDFjxqB58+bw9/fHunXr4ODggJycHKipqUFLSwuqqqpQUVGBlpYWtLS0JNoaIqKqseYRUVXYXIpg3rx50NHRQVBQEBo1aoSxY8eiX79+ldaZPHky3n//ffTr1w/t27fHd999h1u3bmHlypUwMjLC0KFDYWZmBm1tbQwdOhRDhw6VaGuIiKrGmkdEVeFh8WoqKirChg0bsHr16krL27Vrh4iICADA/fv3ceTIETg4OCA2NhYAkJ+fD0dHRxQWFtZ4ZiKi6mDNI6KqsLmsppycHJSUlMDU1LTScplMJv9zUlISAGDOnDkwNDSs0XxERGJjzSOiqvCweDWVlpYC+OeT+stU3FbjwoULz732999/KyYYEZECseYR0cuwuawmHR0dAJAfDvq3iqsnbW1toaqqiqCgoEo3B87KysKWLVtqJigRkYhY84joZdhcVpOuri4GDBiAffv2ITQ0FABQXFyM+Ph4CIKAtLQ06Ojo4MMPP0RMTAxcXV2xdetWhIaGwtfXt9KtN548eYLc3FyJtoSI6PWw5hFRVdhciiA0NBQuLi4IDAyEra0tvLy80LBhQ2hra2PZsmV48OABli1bhrFjxyImJga+vr6YNm0aPvroI+jp6eHx48dYtWoVTpw4gczMTEyfPh0nTpyQerOIiF6INY+IqsILekRgYmKCkydP4tatWygrK4O1tTVSUlLw008/QVdXV77e5s2bsWLFCqSmpsLOzg6ampoAgEaNGmHGjBmYMWOGVJtARPTaWPOIqCpsLkXUokUL+Z8tLS1fuI6hoSGvniSiOoE1j4hehIfFiYiIiEg0bC6JiIiISDRsLomIiIhINGwuiYiIiEg0bC6JiIiISDRsLomIiIhINGwuiYiIiEg0bC6JiIiISDRsLomIiIhINGwuiYiIiEg0fPzjawoPD0d4eHilZWfOnAEAjBw5stJyLy8veHl51Vg2IiKxpaenY+bMmZWWpaWlAXi+5pmbm2PFihU1lo2IlBuby9dkYWHxXHNZ4X+Xz549uyYiEREpjJmZGWJiYuQN5b/9b82bM2dOTcUiolqAh8Vfk5OTEywtLV+5XrNmzeDk5FQDiYiIFEcmk8HPzw/q6uqvXNfHx6cGEhFRbcHm8g28qtCqq6sjMDCwBhMRESnOmDFjUFJSUuU6VlZWaN++fQ0lIqLagM3lG/D29q6y0JaUlDx3LhIRUW1lZ2cHOzu7l77OD9RE9CJsLt9Aq1at0KZNG8hksudek8lkaNu2LVq3bi1BMiIixRg7duxLj9iUlJRg1KhRNZyIiJQdm8s3NHbsWKiqqj63XE1NDWPHjpUgERGR4vj4+KC0tPS55TKZDB06dIC1tbUEqYhImbG5fEO+vr4oKyt7bnlpaSlGjx4tQSIiIsVp1qwZHB0dnztio6qqCn9/f4lSEZEyY3P5hpo0aQJnZ2eoqPz/vzoVFRU4OzujadOmEiYjIlKMsWPHVqp5AFBWVsb7+RLRC7G5fAt+fn6VPsXLZDIeEieiOut/z6tUUVGBq6srmjRpIlEiIlJmbC7fwsiRI587ROTp6SlRGiIixTIyMkKvXr3k55tX3AOTiOhF2Fy+hUaNGqFPnz5QU1ODqqoq+vbtCwMDA6ljEREpjJ+fHwRBAPBPc+nh4SFxIiJSVmwu39KYMWNQXl4OQRAwZswYqeMQESnU8OHDoaqqCplMBnd3dzRq1EjqSESkpNhcviUPDw9oaGhAXV0dw4YNkzoOEZFC6erqYvDgwRAEgYfEiahKalIHqK20tLQwdOhQAIC2trbEaYiIFM/X1xdHjhzBoEGDpI5CREqMzWU1+Pr6vvBpPUREddGgQYMQEBCABg0aSB2FiJQYm8uXePjwIVJSUpCVlSX/evToEf7++2+UlpaipKQEeXl5AIBdu3ZBXV0d6urq0NbWhqGhIYyMjGBoaAhjY2NYWFjAyMhI4i0iMRUVFSE7OxvZ2dn4+++/UVhYiNzcXOTn56OgoAAFBQXIycmBIAjIy8urdOP94uJiFBQUVBpPS0sLGhoa8u9VVVWhq6sLmUwGfX19aGlpQUtLC9ra2tDT00ODBg2go6MDQ0NDGBoaol69ejW27VQ3FRYW4vbt28jMzMTDhw+RnZ2NrKws5Ofno7CwEACQk5ODkpIS+Pn5yRtMfX19aGtrw8jICCYmJjAyMoKZmRmaNWv2wqeZUd2Qk5ODrKws5OXlIS8vD4WFhSgsLEROTg6ePn0q/zOA52pgeXk5cnNzK42npqYGHR2dSss0NTVRv359+e9WPT09aGpqokGDBtDX14empia0tbVhYGAAAwMDfuhRIu98c5mdnY24uDjExcXhypUrSE5ORnJycqV/+A0aNJA3i7q6ulBVVa30g3D//n2UlpairKwMeXl5yMrKQnZ2trwgA4Cenh5atmwJa2trtGnTBo6OjnB0dORV5krm8ePHSE9PR2pqKlJTU5GWloZ79+7h0aNHyM7OxsOHD+W/cF9EW1sbDRo0kBdCFRUVNGjQoFLzp6KiAj09vUrvu3fvHsrLy+XfFxUVobCwUF6EK37Bv2xeHR0dGBkZyf+dGhoaokmTJmjatCmaNWuGZs2awdzcHA0bNhThb4lqs6KiIly6dAlxcXG4ePEikpKSkJycjIyMDPk6ampq8n9POjo60NTUBPBPHVNTU0NeXh4yMzMBQN5cPHjwAE+ePJGPoaGhAUtLS7Rs2RJ2dnbo1KkTHB0d0aJFCx7xUVI5OTnIyMhAamoqMjIykJ6ejnv37sl3rvz760WPBAXwXAMok8meq4EA5K9VKCgoQFZWVqV1KnbmVNTD3NxceeP6IpqamjA0NISBgYG8DlZ82DEzM0Pz5s3ldZEfyBXrnWsu09PTcfToUURGRiI6Ohp37twBAFhYWMDBwQG9e/fGhAkT0LJlS1hYWMDU1BRaWlpvNVdBQQEyMzORkpKC5ORkeRHfsGEDPv/8cwCApaUlevTogT59+sDNzQ1mZmaibSu9WFpaGpKSknDz5k3cvHkTN27cQEpKCu7evVtpj6KBgQGaNm2Kpk2bwsDAALa2tjAyMoKxsbG8cBkaGkJHRwcNGjR4rmFUlNzcXBQWFiIvLw/Z2dnPNb4Ve5zi4+ORlpaGx48fy9+rpaWF5s2bw9LSEra2trC2toaNjQ1sbGz4hKk6qqCgACdPnkRkZCROnDiBhIQElJSUQF9fHx07doSdnR2GDBmCli1bomXLljAxMYGhoeFbzVVcXIzs7GykpaVVqnmRkZFYvXq1fN4uXbrAzc0Nffr0Qfv27Z97+g8pRnFxcaXfRxX/fyo+TP+7/uno6MDc3ByNGzeGsbEx2rdvL2/aKvYUGhsbQ1dXt1JDWVMq9pDm5+fL6+C/vx4+fIhHjx7hwoUL2LNnD+7fv4/i4mL5+01MTGBmZgYrKyv5jp+K/zZu3LjGtqOueieaywsXLmDHjh34888/cePGDdSvXx/dunVDYGAgnJyc4Ojo+NbFtCpaWlpo0aIFWrRoATc3t0qvZWVlyfeYHj9+HB988AGePXuG1q1bY9iwYRg5ciQcHBxEz/QuycnJwcWLFxEfH4/4+HgkJCQgKSlJXkD19fXljZWTkxOaNWuGpk2bwtzcHM2bN1faQyx6enrQ09ND48aNYWtr+8r1CwsLcffuXaSlpcm/kpOTcerUKYSEhMgPXWlpacHGxgZt27ZFhw4d4ODgAAcHB+jr6yt6k0hkmZmZ2LlzJ37//XdER0ejpKQEbdq0gZubG2bOnAknJye0bNlS9D2IGhoaaNKkCZo0aYIuXbpUeu3Zs2fyPabR0dFYvnw55syZA0NDQ7i7u8PLywv9+vXjHiURlJaW4ubNm0hISMClS5dw6dIl3LhxA3fv3pUfnjY2Noa1tTWsra3h7OwMc3NzmJmZyWugrq6uxFtRNX19fXltsra2fuX6giAgMzMTGRkZ8r2z6enpuH37NiIiIrBmzRr57wYtLS1YW1ujdevWaN++Pdq3b4927dqx6XwDdba5TEtLw4YNG7Bt2zYkJyfDwsICnp6eWLNmDXr06CE/zCMVIyMjuLu7w93dHQsWLMDTp08RFRWFQ4cOYevWrViyZAlsbGzg7e2N8ePHc6/SKzx9+hTnzp1DVFQU4uLiEB8fL98rbWxsjA4dOqBfv36YOnUqbGxs5Hsh3wUNGjSAnZ0d7OzsXvj6w4cPcePGDfme3Pj4eHzzzTfyQ1SWlpbo0KEDHB0d0aNHDzg5OaF+/fo1uQn0Gp4+fYrt27fjt99+w8mTJ6GpqYkhQ4Zg06ZNcHNzg6mpqaT56tevjy5duqBLly6YPHkyBEFAQkICIiMj8eeff8LDwwO6uroYNmwYxo8fjx49ekiat7YoKyvDlStXcPr0acTFxeHSpUu4evUqnj17BjU1NbRq1Qrt2rXD+++/X2kPnbI3j2KTyWRo3LgxGjduDEdHxxeuc+/evUp73C9fvowff/wRaWlpAP75vd2uXTs4ODiga9eu6Nq1K383v0Sdai4FQcCRI0fw888/Y9++fTAyMoKPjw9GjRoFJycnpT7PR1NTE3379kXfvn3x3XffITY2Fjt27MAvv/yCr7/+GkOGDMFHH32EPn36SB1VKTx+/BinTp3CqVOncPr0aZw/fx7FxcVo2rQpunTpgnHjxsHBwQEdOnTg849fwdjYGMbGxnBxcam0PCMjQ77n9+LFi/jpp58wb948aGhowNHREd26dYOLiwt69OjBG2pLKDk5Gb/88gs2bdqE/Px8DBs2DGFhYRg4cKDkH6KrIpPJ5HuFZs2ahfT0dISHh2PLli1wcXFBu3btMGnSJPj5+b31qUl10ZMnTxAdHY2YmBicPn0a586dQ35+PnR1deHo6AhXV1dMnToV7dq1g729faULBalqFXvde/bsWWn548ePcenSJSQkJCAhIQFHjx7F999/j7KyMjRt2hTOzs7yL0dHR6ip1anW6q3Umb+ByMhIzJs3D+fOnUOnTp0QEhICb29vqKurSx3tjclkMvmnoqVLl2L37t1Yv349+vXrh7Zt2+Lzzz+Hp6enUjfLinD16lXs27dPfu5YSUkJrKys0L17dwQEBKB79+6wt7eXOmadUXES/ODBg+XL7t27h+joaERFReGvv/7CypUrIZPJ4ODggD59+mDw4MHo1q0bz6GrASkpKViyZAlCQkJgbGyMCRMmYMqUKbV2T0rTpk0xY8YMzJgxA+fPn8f69evxySefYMGCBZg8eTJmzpz5zu1tA/7ZMxkfH4/IyMhKta9x48bo0aMHvvrqK3Tq1AldunSplb/vaoNGjRqhd+/e6N27t3xZQUEBLl68iPPnzyM6OhpLlixBVlYWtLS04OzsjD59+qBPnz7o1KmThMklJFSDp6en4Onp+VrrAhDCwsKqM90LRUVFCZ07dxZkMpkwdOhQ4eLFi6LPoSzOnz8vDBkyRJDJZEKXLl2EqKgoqSMpVFFRkbB3715h7NixgrGxsQBAMDMzE8aNGyfs3LlTePLkidQR33mPHz8WwsPDhXHjxglNmjQRAAjGxsaCv7+/sHfvXqGoqEiybIqoT2FhYcLrls03mf9NZGZmCuPGjRPU1NQEW1tbYcuWLUJpaano8yiD7Oxs4bPPPhO0tbUFY2NjYc2aNXV2W/8tOztb2LhxozBs2DBBR0dHACBYWFgIEyZMEMLDw4Xs7GypI9ILJCYmCmvWrBGGDBlS6f/bBx98IBw+fFgoKSmRLFsN92s7au3uhaysLAQGBsLFxQV6eno4d+4cdu/eXacvgunYsSP27NmDs2fPQldXFy4uLhg3bhyys7Oljiaa0tJSHD58GOPGjYOpqSmGDh2KW7duYebMmbh06RLS09MRHByMESNG8EITJdCwYUN4enoiODgYGRkZiI+Px8yZM5GUlIShQ4eicePGGD9+PI4cOVLpPnf05srKyvDTTz+hVatWOHLkCEJCQnD16lX4+PjU2ftJGhgY4JtvvsGdO3fg7++PWbNmwcnJCTExMVJHE93Dhw+xbt069OvXD6amppg8eTLKysqwZMkS3Lx5E3fu3MH69evh6enJW9gpqVatWmHKlCnYs2cPHj16hJMnT2LMmDE4e/as/P/ruHHjEBERUenK9TqpOq2pVHsu//jjD6FRo0ZC06ZNhfDwcFHGrI3CwsIEMzMzwcDAQPjzzz+ljlMtqampwrx58wQTExMBgODk5CQsX75cSE1NlToavaW7d+8K3333ndCpUycBgGBqaip8/vnnQlpaWo3MX5f2XN6+fVvo0qWLoK6uLsydO1fIz88XZdzaJjExUXBzcxNUVFSEmTNnSrpnXAwlJSXCH3/8IQwYMEBQVVUVGjRoIIwYMULYunWrkJeXJ3U8EtGtW7eEZcuWyY+0NmzYUJg6dapw+fLlGpmfey6rUFRUhI8//hgjRozAiBEjkJiYCE9PT6ljSWbkyJFITEyEh4cHhg8fjhkzZtSqT0OCICAyMhLvvfceLC0tsWnTJkycOBHJyck4e/YsZs2aBXNzc6lj0ltq1qwZPvnkE8TFxSEpKQnjx49HcHAwLC0tMWLECBw7dgz/1DGqyu+//46OHTvi6dOniI+Px9KlS9/ZC1xatWqFyMhIhISEYP369XBxcZHfFaI2SUlJwYIFC9C8eXN4enpCEARs3boVWVlZ2LlzJ7y9vZ97Wg3VblZWVpg9ezZiY2ORkpKCTz/9FAcPHkTbtm3RrVs3hIaGvvTm8LVRrWkunzx5Ajc3N4SGhmLLli1Yv349tLW1pY4lOR0dHQQHB+O3337Dxo0b0bdvX/l9C5VZZGQkOnfujL59+yI1NRU///wzbt++jcWLF6NFixZSxyORtWzZEl9++SXu3r2LrVu3Ii8vD25ubmjfvj3Cw8Oljqe0goKC4OnpidGjRyM2NhatW7eWOpJS8Pf3R1xcHIqKiuDo6IjTp09LHem1XLt2DWPHjoW1tTWCg4Ph5+eHpKQkHDx4ECNHjlTae+uSuJo1a4Y5c+bg5s2biIuLQ9u2bfHRRx+hefPmWLhwYa34Hf4qtaK5zMjIgIuLC1JTUxETEwNvb2+pIykdX19fnDlzBrdv34arqyvu378vdaQXioyMhLOzM/r164cmTZrgwoULiIuLw8SJE3nvxHeAhoYGvLy8cOTIEZw/fx4WFhYYOXIkunfvjmPHjkkdT2mUlZXhww8/xNdff43169dj7dq1/Pn4H7a2tjhz5gxcXFzQt29f7N+/X+pIL5WQkICRI0eibdu2uHDhAn799VekpaVh6dKlsLKykjoeSahTp05Yt24dUlJS8MEHH2DVqlVo0aIFFi9eXKubTKVvLrOzs9GrVy8IgoDo6Gh+cq+Cvb09oqOjUVxcjN69e+PRo0dSR5J78OABvLy80LdvX2hrayM2Nha7d+9Ghw4dpI5GEqm4QO3SpUswMzODm5sbhgwZUukZ1++qSZMmYfPmzdi5cycmTJggdRylpampiZ07d2L06NEYPnw4Dh06JHWkSnJycjBt2jR07NgRiYmJ2LRpEy5dugRvb2/eC5EqMTY2xldffYX09HTMmTMHq1evhpWVFVavXo3y8nKp470xpW4unz17Bg8PD5SWluLYsWM8/+41NGvWDMeOHZP/3T179kzSPIIgYNOmTbCzs8PFixcRGRmJI0eOwMnJSdJcpDzatWuHHTt24PDhw7h69Sratm2L0NDQd/Z8zKVLl2Ljxo3Ytm0bPDw8pI6j9NTU1BAcHAxvb294eXkhPj5e6kgAgK1bt6JVq1YICwvD5s2bkZCQgLFjx9bZK/tJHDo6Opg7dy5u376NMWPGYNasWejduzeuXbsmdbQ3otTN5ZQpU3Dt2jUcOHAAJiYmUsepNRo3boz9+/fjypUr+PjjjyXLUVhYCE9PT0yYMAGBgYFISEh47hnrRBX69u2Ly5cvw9/fH+PGjYOXl1edOsH9dRw8eBDz5s3D6tWr2Vi+AZlMhg0bNsDR0RHDhg1Dbm6uZFny8/MxYsQI+Pn5Yfjw4bh+/Tp8fX3fuYdeUPXo6enhhx9+QGxsLAoKCtChQwesW7dO6livTWmby4MHD2Ljxo3YuHHjS5+JTC9nb2+P4OBgBAcH4/DhwzU+/71799CzZ0+cPHkSf/31F1asWMGT1emVtLS0sGrVKhw7dgzHjx9Hr169kJmZKXWsGpGbm4sJEybA29sbU6ZMkTpOraOhoYEdO3bg2bNn+OSTTyTJcPv2bXTr1g1RUVE4duwY1q5dy/vxUrV06tQJsbGxmDdvHiZNmoRJkyahpKRE6livpJQnfTx9+hQTJ06Et7c3hg8fLtq4RUVF2Lx5s/wcrx49eqBz5844cuQIhgwZ8sbjPXnyBN27d8fcuXPh7+8vWk6xjBgxAl5eXpg4cSKuX79eYxcEJCcno3fv3tDW1kZMTEyNX/3922+/KfycprNnz+LmzZtVrlO/fv1ac6us0tJS7N69G2vXrsWQIUMwbdo0SfO4uroiJiYGgwcPRpcuXRAVFVXnT4v59NNPUVJSgh9++EHUcd+lumdoaIiff/4ZXl5e8PX1Ra9evWps7rNnz2LgwIFo3rw54uLiFPrvVRnrjzJmqg5lqomqqqoICgpC+/btMXbsWNy4cQN79+5V6luSKeWey02bNiE7OxurVq0SbcycnBx07NgRZ8+ehb+/P5ycnLBu3Tpoa2s/d5VqUVHRa42ppqYGAwMDpb4l0vfff48HDx5g8+bNNTJfdnY2+vfvD1NTU5w+fbrGG8unT59i+vTp2LNnj0Ln6dy5M2xsbDBu3Dh8/PHH0NbWln+pq6sjKSkJH374oUIziCk9PR337t3D0aNHleZTccuWLXHmzBno6enBw8OjTh8iz8jIQEhICL7++mtRn77yLta9ESNGoE+fPvjqq69qbM5r167B3d29xj4IKWP9UcZM1aGMNdHDwwPR0dG4cuUK3nvvPZSWlkod6aWUbs9lWVkZVq5ciYCAAFHPswwKCoIgCNiwYYP83Je+ffu+8JDF/PnzsWzZMqioVN176+jo4NSpU6JlVITGjRvD398fK1aswPjx4xV+MnlgYCDKyspw4MABNGzYUKFzvcjWrVvx+PFj/PTTT3jvvfcUOlfnzp1hZmYmv3jqfz158gSCINSKc60sLCzg4+Mj6Tm6L9KwYUPs3r0bnTt3RmBgIMLCwqSOpBDff/89jIyM4OfnJ+q472rdmzt3Lvr06YO4uDg4OjoqdK6CggJ4enrCzs4Ov//+e40dIVLG+qOMmd6WstbEtm3b4uDBg3BxccH8+fPx7bffSh3phZRuz2VMTAxu3bqFqVOnijruuXPnUK9evef+Uc+dO7fSssuXL+OXX34RdW6pTZ06FUlJSTh79qxC59m5cyf279+P//73vzAyMlLoXC+zfv16uLq64tixY0hMTFT4fOrq6i99bebMmbXqFhLKemsUS0tL7NixA+Hh4fjzzz+ljiO6iqezTJw4ERoaGqKO/a7WPTc3N9jb22PLli0Kn2vx4sXIzMxEWFhYjd+LVBnrjzJmelvKWhM7duyINWvWYMWKFTh//rzUcV5I6f7mDh06BAsLC9Ev4rGzs0NISAimTp2KFStWyIt4s2bNMGDAAABAdHQ0fHx8UFBQgO3bt0NdXR1eXl64desWQkNDsXDhQkRERODatWuYMWMGysrKEB4eDhMTE/Tr1w/AP+cbhoaGYvHixbh16xZ27NgBY2NjBAQEVPqhKywsxG+//YaHDx/Czs4Obm5u0NXVhYqKiuif6uzt7WFpaYnDhw/D2dlZ1LH/bdGiRfDx8UGPHj0UNkdVTp48CTs7d/dY2gAAIABJREFUO/j5+eHEiRP46aef8OOPP1ZaJywsDOXl5VBXV5ef+7Nz506UlJRAU1Oz0qft6vw/Onr0qPzK+KNHj+Lhw4fy1wYOHIibN28iOTkZANCvXz/5odCkpCQcOHAAOTk56Ny5M9zd3eXvS0lJwaZNm/Dpp5/iwYMHCA0NhYmJCby9vaGvr49bt24hPDwcGhoaCAwMrLTn+NatW9i7dy+mT5+OqKgoREREwMbGBn5+fvI9VS/bpry8PISFhSExMRFWVlYICAio8UOivXv3xqhRo7Bo0aI6dxX1lStXcO/ePQwaNEj0sd/luufu7o4DBw6IOub/evjwIVavXo3ly5fDzMxMoXO9iX/Xnwovqy2sibWzJgYGBiIkJARBQUHYt29fjc79WqrzZHJFPAjd1dVVmDBhQnVivVBSUpJgaGgoABBsbGyEiIiI59Y5deqU4OvrKwAQ9u3bJxw6dEjYvHmzYGpqKgAQQkNDhQ4dOggAhI0bNwoeHh4CAOHbb78VBEEQQkNDBRMTEwGAsGfPHuG9994TBg0aJAAQFixYIJ8nKytLaNGihbB582ahuLhYmDNnjgBAsLCwEHr06CH6tguCIIwbN07o3bu3QsYWBEE4f/68AECIjY1V2Byv4unpKZw/f14QBEGws7MTdHR0hLy8vErr5OXlCd27dxd0dXXly+7duye0bdtWMDU1lS/7f+zdeVyN+fs/8Ndp3xOqKZGkEBFiigyGGFmG1FhSWZLIOqMYwzDzNZjM2NcypkxJi6QGpSzZt4ixlrVSUtGmvXP9/ujX/ZGK0Ok+p97Px8Pj4dzrdZ9zus51L+/3u76fkbGxMeno6FTbR3FxMVlbW3OvX716RdOmTSMANGXKFCIiSklJIUVFRfr3339JKBQSEdG8efNowIABlJWVRcePHyeBQEDr1q0jIqLAwEDS09MjABQSEkKOjo7k4OBA0tLSZGtrS3FxcTRx4kRycHAgGRkZsrGx4fa/detWUlFRIR0dHQoICCBTU1NSVFQkADR+/HhuudzcXAJA69ev56YlJibS6NGjKTo6mhISEqhbt25kaGhIr1+//shP5/NdvHiRAFBCQkK9lhdFfgoKCqL6ps367n/btm3UsmVLqqioqNd2P0ZzzntRUVEEgF6+fNng266yYcMG0tDQoMLCQpHt433qk3+I3p9bWE6U3JwYFhZGUlJSlJqa+sFlRZEP3yNY7IpLQ0NDWrNmzeeEVadbt25R9+7dCQABoBEjRlBiYmK1ZX755RcCwH25iYh++uknLskSEd2/f5+EQiE9f/68WpIlIu4P7vDhw9y0wYMHk7GxMfd64cKFpKamRmVlZURU+UcFgJYtWyaS4yYiWr16NRkZGYls+5s2bSJNTc1q71tjSk5OpkGDBnGvt27dSgBo+/btNZadO3dutURKROTi4lItkdb3MzI2NiYFBQWyt7cne3t7GjNmDCkrK5Ourm615UpLS8nKyopUVVUpOTmZFixYQGFhYdWWUVdXp9WrV3OvTUxMyMLCgntd9d18+7s1Z84cAkD79u3jpi1fvpwAUG5uLjdtwoQJpKysTP7+/kRU+eNhaWlJACg6OpqIak+k1tbWdOjQIe71sWPHahQNjUUoFFKrVq1oy5Yt9VpeUorLpUuXUq9eveq1zU/RXPNeYmIiAaAbN26IZPtERGPGjCF7e3uRbf9D6pt/PpRbWE6UzJz45s0bkpeXp4CAgA8u29jFpdg9c5mRkSGyDtNNTU0RHx+PzZs3Q0NDA8eOHUOPHj0+2A+koqIiAHBjmnfq1AkCgaDWy+BVXQPY2Nhw07p164bU1FTudVJSUrXbCHp6eujYsSPOnTv3eQf4Htra2sjIyBDZ9pOTk2FoaMjbg9o7d+7EnDlzuNfOzs5QUVHBjh07aixbW4OFd6d9zGekoaGB4OBgBAcH4/Dhw8jIyKjRiEBWVhb79u0DAIwePRoKCgo1utk6cuQIZs+eDaCyWw8iQlFRETe/6vv21VdfcdN69OgBANUeRejcuTMAVBtGUVlZGWpqanBwcABQ2dBr7dq1AICYmJgaxwQA6enpiImJwYULF/Djjz/ixx9/xJEjR2Bubs5Ly22BQABDQ0MkJyc3+r5FKSMjA1paWiLbfnPNe1W/I6LsJ/Xp06fo1KmTyLZfH/XJPx/KLSwnSmZOVFJSQtu2bfHs2bNG3/eHiF1xKRAIRDrsm4yMDObPn4+kpCQ4OTmhqKgIEyZMeO+IDnUVTPX5gwQqv8RvdxlgZWWFnJwcroFNSUkJ0tLS0KtXr489nHojEbfQE/Xn9j7FxcXw9/dHQEAA7OzsYGdnh2nTpqFVq1a4c+cOTp8+/dHb/JzPSFlZGa6urjWmGxgYYM2aNbh58yZMTExqzO/fvz/i4uLg6OiIxMREtG/fvtp7WttzQPLy8jW2U/Vc3bvdZ7z7+VcNwZmSklLrcSQlJQEAPD09sXbtWqxduxZbt27F1atX8ccff9S6jqiJ+nvMh8b422mOea/qPRXl90VKSkrsGqjUln8+lFvqg+VElhM/htgVl6K6wvZuc/1WrVrBz88PkyZNQk5ODs6fP9/g+6zLokWLYGdnB09PT8TGxmLx4sXo168ffv31V5HtU5RXhIHKBgKPHj3ipcAMDAzErFmzEB4ejtDQUO7foUOHAADbt2//6G1+7mdU1Tjj7bNsoVCIc+fOYciQIZg/f36NBObp6Ym9e/fCx8cHU6ZMqTVJNiQ5OTnIy8ujXbt2dc4HgOvXr9eYl5+fL9LYaiMUCvH48eM645VU2tra1Ro3NKTmnPeqfke++OILkWwfAPT19T/YcTgf3s0/DZFbWE4Uv5xYWFiIlJQU6OvrN/q+P0Tsiks9PT08efKkwbd79uzZWm+PVPWF+O6tnoqKigaPoYpAIICuri42btwIoVAId3d3xMTEQFVVVWT7fPLkiUhbM3711VfIysoSeXdHtdm9e3etZ8U9e/aEhYUFwsPDq92eU1NTq9FhNBFV+8wb4jOqqKjA8uXLuderV6+Gs7MzAgICICsrC2dnZ64Yj4+Px/r16+Hu7l6tO5OGLNaLi4urvb5w4QJKSkrQt2/fWpfv1KkTNzJEaWkpNz0zM7NRunh51+XLl5GdnV3tFlhT0KZNGzx79kwkV8Cac96r+h3R1dUVyfYBYNCgQYiNjRXLDv6r8k99cgvLiZUkLSdGRUWhvLwcAwcObPR9f4jYFZdfffUVYmNjG3y7QqEQTk5OKCgoqDY9ICAA3bt3h4WFBQBw/TPGx8fj7NmzKC4u5i6lZ2dnV1u3altv3rzhpr169QpA9bOz8vJylJWVcX+8Xl5eiIuLQ0pKCmRlZZGbm4u7d++KtLf9kydPivQLaGZmhu7du2Pz5s0i20dtIiIioK6uXme/mmPHjkV5eTnWrVvHTdPX10dJSQliYmJARAgKCsKFCxeQm5uL3NxcVFRU1Pszys3Nrfb5VxEKhVi2bBkMDAwAVCaB7OxsjBgxAtra2vDy8sKpU6fg5eUFANy46+Hh4SgvL0dsbCxu3ryJ169fIykpCU+ePKn1+1b13Xz3+/buclWxvv28YlRUFMzNzTF+/HgANb/PGhoacHNzw6VLlzBw4EDs378fvr6+cHBw4J7Da0ybNm1Cz5490b1790bftygNHDgQr169qvVqyOdqznkvNjYWXbt2FWmfuw4ODiguLsaePXtEto/3qU/+qU9uYTkRXEySkhOJCH/88QdsbGxEegL1yT6nOZAoWh+dP3+eANCdO3c+J7QaHBwcaPz48dSzZ0+aNm0aLVu2jLp27UqDBg2iJ0+ecMs9fvyYtLW1SUNDg/bs2UOhoaHUqVMnAkD29vZ08+ZNIqpsnTx79mwCQCYmJnTs2DEKDw+n9u3bEwBasGABPX78mA4cOEAGBgYEgDw8PCgjI4MiIyNJQUGBa71Z9a9du3Z0/PjxBj1uIqL//vuPANCFCxcafNtvO3jwIAkEAjpz5oxI91Nl+/btpKmpSVpaWrRu3ToqLy+vNv/06dPUr18/AkACgYBmzJhBz58/pzdv3lC3bt0IAGlra5Ofnx+5urqShoYGLV68mLKysj74GV2+fJkWLlzITbeysqLx48fT+PHjafjw4dShQweSlpamFy9eUGhoKKmqqtL06dO5GHfs2EEASFpampYuXUqFhYXk6OhIUlJSpK2tTbt27aLVq1eTlJQULV68mI4fP87F7ObmRg8ePKCjR49Snz59uO48bt26RSdPniQrKysCQHZ2dnT37l0iIpo+fTopKyvTmDFjaPv27eTq6kpWVlbcdz8tLa3a9zk8PJyIKlsjOjk5cceppqZWraVkYzl16hQJBAIurvqQlNbiQqGQ2rRpQ7/88ku9tvsxmnPeMzExoUWLFjX4dt+1dOlS0tDQoJSUFJHvq8rH5B8iem9uISKWEyUwJ/r4+JC0tDRdv369Xss3+66IysvLqWPHjuTm5vY5odVQ1Q+UUCikW7du0alTpyg5ObnWZUtLS0Xab1lISAgFBgZSVlYWPXjwgK5fv06nTp2irVu3VutOp6HMnDmTjIyMRNKP3rvGjBlDbdu25ZKauKr6Hrx584aIKrstefszb+zPqMrLly+ptLSUe/3q1asG2e706dNJV1eXSkpK6MaNG/T48eOPWj8zM5Pi4+N56c8vLS2N2rRpQ+PGjfuo9SSluCQi8vDwIF1dXSouLq7X8vXVXPNeTEwMAaBr16416HZrU1BQwHWRw1d/l/XxodzCcqLk5MSrV6+SoqIiLV26tN7rNPvikoho586dpKCgQOnp6Z8TnlhKSkoiLS0trq+wt2VkZJCjo2OD7u/58+ckLy9P3t7eDbrdumRlZVHHjh2pV69elJ2d3Sj7bGiN/Rk1hqpEKmmysrKoR48e1KlTp4/+UZGk4rKx/04bW2P/TQ0ZMoSGDh3aoNt8n3v37lGrVq1o+PDhVFBQ0Gj7bSwsJ4qPGzduUOvWrWnEiBG1fh51afb9XAKVfRRqaWlh4cKFfIfS4FJSUvDy5Us4OjrizJkzSElJQUpKCmJjYzF//nysXLmyQfe3YMEC6OjowMnJqUG3W5dWrVohOjoaWVlZsLS05IbzkiSN/Rk1hsLCwlqfgxJnSUlJsLS0RG5uLqKjo6sN3dbU6OrqYsaMGVi+fDmysrL4DqfBNebfVEhICE6ePIkVK1Y02DY/pHPnzoiOjkZ8fDysrKzEst/Bz8Fyong4ePAgBgwYADMzM4SGhort2OeAGDboASo77/X29kZwcDDCwsL4DqdBDR48GNHR0dDU1ISbmxuMjY0xcuRIREdHw9vbG4aGhg22r9DQUBw8eBA+Pj4i78LhbR06dMDly5ehrq4OS0tLnDlzptH23RAa8zMStbKyMuzYsQNxcXHIz8/HihUrqrWcF1enT5+GpaUlWrZsiUuXLollVxsNbe3atZCXl8f8+fP5DqXBNdbfVFZWFubOnYuZM2c2eq8CvXv3xpUrVyAUCtGnTx/ExcU16v5FieVEflVUVGDlypWwt7eHs7Mzjh07xjV4Elufc91T1JdZZ86cSRoaGtwDuE2RqIZLvH37NrVo0YJmzZolku3Xx5s3b2j8+PEkLS1NCxculNjbRXwNadkc5efn0/z580lKSors7Ow+63kmSbotXiUqKoqkpKTqPcSlpBLF31RJSQkNGjSI9PX1qw3z19gKCgrIzs6OpKSkaNasWQ32jKA4YTmx8Vy5coV69epFcnJyn/XYDLst/pYtW7aga9eusLGxEenQhXwSRc/6aWlpsLGx4aVroLcpKSkhNDQUe/bsgZ+fH0xNTescVkuciePoB01RVFQUTE1N4e/vj7179yIkJIQbgrC5GD58ONauXYtFixYhIiKC73BEpqH/pogI06dPx/Xr1xEZGQk1NbUG3f7HUFZWRkhICAICAhAREYHOnTvjn3/+4W0EM1FgOVH0Xr9+jblz58LCwgJqampISEjAzJkz+Q6r3sS6uFRQUEB4eDjk5OQwePDgJjemsCg8ffoUgwcPhpKSEg4dOtSot8PrMnXqVNy7dw9WVlYYNmwYrKysJO5WOSM6ly5dwujRozFixAh069YNt27dgrOzM99h8cbT0xMuLi6YMGECN8oUU7fy8nJMnz4dwcHBCA0NhampKd8hAQAmTpyIe/fuYeLEiZg2bRpMTU2xb98+kXZUz0i+vLw8/P777zA0NERgYCB27tyJkydPokuXLnyH9lHEurgEKhuInDp1CrKysujfvz/u3LnDd0hi6/bt2+jfvz+UlJRw6tQptGzZku+QONra2ti3bx9OnjwJoLLj6NGjRyM+Pp7nyBi+XLt2DaNGjYKlpSVycnJw+vRpREZGinQkKUmxY8cOzJgxA/b29vD29uY7HLFVVFQEW1tbhISE4PDhw7C2tuY7pGrU1dWxefNmJCQkwNTUlCsyAwICaoxzzTRvGRkZWLZsGfT09LB+/Xp8//33ePz4MVxdXSXySrHYF5dAZUvKuLg4GBgYwNLSkpdhlsTdP//8A0tLSxgZGeH06dMiHU/3cwwePBjnzp1DTEwMMjIyYG5uDnNzc3h7e1cbUYFpmkpLSxESEgJra2v06dMHmZmZiIiIwNmzZ8VyCDO+SElJYdu2bfj555/h5uaGWbNmsb+Pd9y/fx9ffvklLly4gNjYWIwYMYLvkOrUrVs3BAYGIikpCQMGDMDUqVPRtm1bLF26FI8ePeI7PIYnRITY2Fg4OTmhffv28PHxwffff49Hjx5h+fLlUFdX5zvETyYRxSUAtGjRArGxsZgxYwYcHR0xY8YMXgaKFzd5eXmYNm0anJ2d4erqiuPHj0vEF3Lo0KG4fPkyTpw4gfbt28Pd3R0GBgZYvnw5EhMT+Q6PaWAPHjzAsmXL0LZtWzg4OEBDQwOnTp3C5cuXMXr0aL7DE1s///wzDh48iJCQEHz55Ze4ffs23yHxjoiwd+9emJubQ1lZGdeuXeOGsRR3HTp0wO7du/Ho0SPMmjUL/v7+MDY2xrBhw3DgwAGJ6xqH+TRPnz7F2rVrYWRkBGtrazx58gS7d+9GcnIyVq1aJRG/4R8iMcUlAMjJyWHjxo0IDw/H4cOH0aVLFwQHB/MdFm+CgoLQpUsX/Pvvv4iIiMCff/4JOTk5vsOqN4FAgK+//hqhoaF4+vQpXF1dsXfvXnTq1Am9e/fG+vXrm1x/cc3Js2fP4OXlhV69eqFz587w8/PD7Nmz8fTpUwQHB2PQoEF8hygRxo0bhxs3bkBFRQW9evWCp6dnsy1C7t27hyFDhmDmzJmYM2cOzpw5g/bt2/Md1kdr164dfvnlFzx79gzh4eGQl5eHo6MjNDU1YWtri/379yMvL4/vMJkG9PDhQ/z+++/o06cPDAwM8Oeff2L06NG4c+cOzp49CycnpybVgFGiissqY8aMwf379zF8+HBMnDgR1tbWuHr1Kt9hNZqrV6/C2toakyZNgo2NDe7fv49Ro0bxHdZnadOmDX799VeuY95evXph3bp1MDAwQP/+/bFu3TokJCQ0qRaXTQ0R4caNG1i7di369esHAwMDeHl5wdzcHCdOnODOynV1dfkOVeLo6+vj3Llz2Lx5M/bs2YMuXbrAz88P5eXlfIfWKDIzM7F48WKYmZkhNzcXFy9ehJeXF2RlZfkO7bNIS0tj9OjRiIyMRHp6OrZs2YLCwkJMnToVWlpaGDVqFLZt24YHDx7wHSrzkUpLSxEXF4fly5ejZ8+eMDIywh9//AEzMzNERUUhPT0dGzduhImJCd+hioREFpcA0Lp1a/z11184d+4cCgoK0Ldv3ybfQOTq1asYNWoU+vbti4KCApw/fx4+Pj5o1aoV36E1GGlpaQwZMgQ+Pj5IT09HZGQkjIyMsGnTJvTs2RNt2rThWoZmZ2fzHW6zl52djaCgIEybNg26urro1asXNm/ejE6dOuHff/9Feno6vL298fXXX0NaWprvcCWalJQUZs+ezZ1Yu7i4wMTEBP/880+TbYGcmZmJJUuWwMDAAP7+/tiwYQOuXLmCvn378h1ag2vdujVcXFwQFRWFFy9eYNeuXZCVlcVPP/2Ezp07Q19fHy4uLggKCsLLly/5Dpd5BxHhzp072Lx5M0aNGoVWrVph0KBBCAwMhIWFBWJiYpCeng4fHx8MHz5c4k+MPkR8xw6qp379+uHixYuIjY3FTz/9BHNzc/Tu3Ruurq5wdHSU+MvMpaWlOHz4MLy9vREbGwsLCwtEREQ0i+fU5OTkMHLkSIwcORIAcOfOHfz777+IjY2Fo6MjSktL0aFDB/Tv3x9WVlbo378/TExMJLJlnaRIS0vD+fPnce7cOZw/fx43btyAQCCAmZkZnJ2dMWrUKPTr1w9SUhJ73ir2tLS04OPjg+XLl2PNmjWYPn06lixZAicnJ7i7u6Nt27Z8h/jZ4uPj4e3tDX9/fygpKWHFihWYN2+e+I9K0kBatmyJqVOnYurUqaioqEBCQgJiY2O5xh+lpaXQ0dHh8l7v3r3Rt29fiXosStIVFBQgISGBy4eXLl1CVlYWVFRUYGFhgeXLl2Po0KHo3bs336HyQuKLyypDhw7F0KFDceLECezYsQPu7u74+eefMWnSJHz33XewsLCQmKKDiHDx4kUEBwcjMDAQr169wtixY3HixAl8/fXXfIfHm65du6Jr165YsmQJcnJycPbsWa7ICQ4ORklJCXR1dfHll1/CzMwMPXv2hJmZWZP4seVDcnIyEhISkJCQgBs3buDy5ctIT0+HgoICzM3NMXToUKxatQoDBgxoEg+gSxp9fX3s3r0bS5cuxc6dO7Fnzx5s3LgRo0aNwsSJEzFy5EiJKsaSk5O5zsdv3LgBMzMzbNq0CQ4ODhJ1HA1NWloavXv3Ru/evbFkyRLk5ubi/PnzuHTpEi5evIiff/4ZeXl5UFFRgbm5OczMzGBqaooePXqga9euUFBQ4PsQJF5mZiZu3bqFmzdv4r///sP169dx584dVFRUQF9fH/369cOKFStgaWmJXr16sbs0aELFZZUhQ4ZgyJAhSE1NxZ49e3DgwAFs2rQJ7dq1w/jx4zF8+HAMGDBA7JLVmzdvcObMGURHRyMsLAwpKSno0qUL3N3d4eLiwp5Te0eLFi0wevRo7gpucXExrl27hnPnziE+Ph779u3DqlWrQERo1aoVzMzMYGZmBmNjYxgbG6Nz585i211TY0tPT8eDBw+QmJiIBw8e4ObNm7hx4wZevXoFgUCADh06oGfPnliwYAGsrKxgbm4uFp3zM5Wqnm399ddfERwcjH379mHSpElQUFDgrvwPHTpU7HKIUCjkrsgdOnQIly9fRosWLTB27Fhs27YN/fr14ztEsaSurg4bGxvY2NgAqBx3+u7du7h48SKuXr2K8+fPw9vbG4WFhZCRkYGRkRG6d+8OExMTGBkZwcjICB07dkSLFi14PhLxQkRITU3Fw4cPkZSUhKSkJPz333+4desW0tPTAVT219y9e3cMHz4cK1euhIWFhdj9XYmLJldcVtHT08OqVauwatUq3Lp1C8HBwTh8+DA2btwIeXl59OvXD4MGDeL6WdTS0mrU+DIyMhAfH4+rV6/i9OnTuHjxIkpLS9GtWzdMnToV9vb2YjPShCRQUFCAlZUVrKysuGl5eXm4efMmd/UtLi4OPj4+XCtMNTU1rtjs2LEj2rZtCz09PbRr1w7t2rWDiooKX4fToPLz85GcnIyUlBSkpqYiJSUFDx8+RGJiIhITE2u8H927d8e3334LMzMz9OjRg9eh9Jj6U1BQgJOTE5ycnJCZmYmDBw/i4MGDmDVrFoqLi2FiYoKhQ4eib9++MDc3h5GRUaM+vlBUVISEhARcu3YN58+fx8mTJ5GZmQltbW3Y2NhgxYoVGDp0KLu1+5GkpaVhamoKU1NTuLq6AqgsOB89eoSbN2/i1q1b+O+//xAQEIAnT55wnbdramqiY8eOMDY2Rvv27dG2bVvo6uqibdu2aNOmDTQ0NPg8rAYnFArx4sULpKSkIC0tjcuHjx494grKqr5k1dXV0bFjR3Tt2hU//PADevToge7duzd6nSDJmmxx+bbu3buje/fuWL16NdLT07lnV/z8/LBy5UoAQNu2bdGjRw+u0OjYsSPat28PHR2dTy4y8vPzkZ6ejqdPn+Lhw4fcD/qtW7eQkpICoLLfMysrK8yYMQNDhw5lV9MakJqaGgYMGIABAwZUm/72lbqqq3WhoaFISUmp1ndqixYtoKenBz09PbRu3Zr7p6WlBU1NTe61iooKlJWV0aJFC5E/ekFEyMnJwZs3b1BQUICsrCxkZWUhMzMTL1++rPb6+fPnSElJQW5uLre+qqoq2rVrBwMDAwwcOBAzZ85kV3KbIE1NTbi5ucHNzQ2FhYXcwAWnT5/Grl27UFpaCjU1NZiZmaFTp05czjMyMoK2tjY0NTU/6btcUlKCzMxMpKSkcFd/Hj58iLt37+Lu3bsoLy+HhoYGLCwssGTJEgwdOhTdu3eXmEeWJIW0tDR34mxvb89NLy8vx7Nnz7jPJTExEUlJSbh69WqN/KekpIR27drhiy++gJaWFlq3bo1WrVqhVatW3P9bt26Nli1bQkVFBYqKilBVVW2U4xMKhcjNzcWbN2/w5s0bZGdnIysrC9nZ2cjOzsbLly+5aVlZWUhOTsaLFy+q9a7wxRdfoE2bNujQoQNGjRrFFdpGRkasiGwAzaK4fJuOjg4cHR3h6OgIAHj16hXi4+Nx7do13L59G2fPnsXff/+N169fc+soKChAU1MTmpqaUFZWhry8PKSlpbkrOnl5eaioqEBJSQn3g5+ZmYni4mJuG8rKytxtiTlz5qB3794wNzdvcmeHkkBHRwc6Ojq19rOYk5OD1NRUPHv2jLvKl5aWhqysLDx69AgvX77E8+fPq322b1NUVISSkhLU1dWhoqICWVnZat+VKu87IrtUAAAgAElEQVR+7m9/34D/fafKyspQUFCA3NxcFBYW1jlKi7q6OvcD0Lp1a+jq6qJPnz5ccayvr4+2bduyZyObISUlJQwbNgzDhg0DUNlI8NatW7h27Rpu3LiBhw8fIioqCqmpqVxXX9LS0mjdujWX86qKBjU1NUhLS6OoqAjFxcXcj3x+fj5evHhRrW9GWVlZtGvXDt26dcM333zDNbjs0KFD478JDABARkYGhoaGMDQ0rHV+Xl4eUlNTkZqayp2cvnjxAi9fvsSdO3eQnZ2N58+fo6CgoM7hK1VVVaGgoABVVVWoqqpCRkam1hxYNa9KYWEhSkpKuNcVFRXc96mwsBDFxcXIycmpsdzbVFRUuKJXU1MTrVq1goGBAWxtbbmrsnp6etDV1WVXyEWs2RWX72rZsiWsra1rjEmbnZ2Np0+fIiMjo9rVoKov+dtffD09PUhLS0NBQQFKSkrcVS1NTU1oaWlBTk4OvXv3xrx587iilhFPLVq0QIsWLdCtW7ca84gIEyZMQE5ODu7evQsFBQVkZWWhoKAAb9684a4oFhYWIi8vD/n5+SgvL0dJSQkKCwu57bz93amir69f7SFwJSUlyMvLQ0ZGBqqqqlBTU4OysjKUlJTQokULKCsrQ0VFhSsmm3q3FkzDkZOT4x4HeltxcTEePXqEzMxMvHjxApmZmcjKyuK+zwCQm5sLoVAIDQ0NKCoqckWDqqoqd8WzdevWaNOmDRwcHNC6dWuEh4fzcZjMJ1BTU4OJiUmdfS9eu3YNAwcOxNy5c7Fq1SpkZWXh9evXKCgoQFFREfLz85Gfn4+ioiLupFgoFKK0tLRGx/85OTnV+i3W0NCo0Rai6iRcQUEBioqK3DKKiopQV1eHsrIylJWVuSuqrPGS+Gj2xWVdqr6sDeW7777D+vXrMWXKFHYLSEL99ttvOHToEKKjo2FgYACg8ioowzQFCgoK6Nq1a4Ntz8PDA7a2trh7926T7Si6OUlLS8O4ceMwYMAAeHl5QUZGhj2PzdSJdUbXSDw9PXH79m0cP36c71CYTxAVFYVVq1Zhw4YNzbo7KIapr2+//RadO3fGhg0b+A6F+UyFhYUYO3YsVFVVceDAgWq3sxmmNqy4bCTdu3eHtbU11q9fz3cozEd68OABJk6cCAcHB8ybN4/vcBhGIggEAixatAj+/v5IS0vjOxzmEwmFQkyePBlPnjxBZGQk68KIqRdWXDYiDw8PnDhxAleuXOE7FKae8vLyMG7cOHTp0gXe3t58h8MwEsXJyQktW7bE1q1b+Q6F+UQeHh6Ijo5GREREnQ2BGOZdrLhsREOHDkWvXr2wceNGvkNh6qHqjD0nJwehoaGs43CG+Ujy8vKYO3cuduzYUa1LLEYy7N27Fxs3bsSePXtgaWnJdziMBGHFZSNbvHgxQkJC8OjRI75DYT5g6dKlOHHiBA4dOoQ2bdrwHQ7DSKTZs2eDiPDXX3/xHQrzEeLi4jB79mysXLkSDg4OfIfDSBhWXDay7777Du3bt8fmzZv5DoV5j4CAAKxfvx7btm3Dl19+yXc4DCOxNDQ04OLigo0bN6K0tJTvcJh6uH//PsaNG4dvv/0WP//8M9/hMBKIFZeNTFpaGvPnz8dff/2FrKwsvsNhanHjxg24urpi0aJFmDFjBt/hMIzE+/7775GRkYGgoCC+Q2E+IDs7G2PGjEHHjh3h6+vLus5jPgkrLnng4uICRUVF7Nixg+9QmHdkZGTg22+/haWlJby8vPgOh2GaBD09PUyYMAHr16+v1nE2I17Kyspgb2+PsrIyREZG1ujUnGHqixWXPFBSUsLs2bOxbdu2OofzYxpfWVkZJkyYAGlpadaXG8M0sKq+fqOjo/kOhamDi4sLrl27hoiICGhra/MdDiPBWHHJk3nz5qGgoAC+vr58h8L8f/PmzUN8fDwiIiLQunVrvsNhmCbF1NQUw4YNY339iqnffvsNAQEB2L9/P0xNTfkOh5FwrLjkiZaWFpycnPDHH3+goqKC73CavR07dsDb2xt79+5liZVhRMTDwwMnT57E5cuX+Q6FecvBgwfx888/Y/PmzRg1ahTf4TBNACsueeTp6Ylnz54hPDyc71CatfPnz2PRokVYuXIl7O3t+Q6HYZqsIUOGoHfv3qyvXzESHx8PJycnzJ07F+7u7nyHwzQRrLjkUYcOHfDtt9/i999/5zuUZis5ORm2trYYMWIEVqxYwXc4DNPkLV68GKGhoayvXzGQlpaGb7/9Fl999RX+/PNPvsNhmhBWXPJs6dKluHr1Ks6cOcN3KM1OUVERxo8fj1atWmHfvn2QkmJ/Dgwjavb29mjfvj02bdrEdyjNWkFBAWxsbKCurs4aMDINjv2a8qxPnz4YMGAAe8i9kRERZsyYgcePHyMiIgJqamp8h8QwzUJVX7979+5lff3yRCgUwsHBARkZGTh69CjU1dX5DolpYlhxKQY8PDxw5MgR3Llzh+9Qmo1169YhODgY/v7+6NixI9/hMEyz4uLiAiUlJWzfvp3vUJql77//HsePH8ehQ4egr6/PdzhME8SKSzEwatQodOnShT3z0kiio6OxYsUK/PHHHxgxYgTf4TBMs1PV1+/WrVvx5s0bvsNpVv766y9s2bIFf/31FywsLPgOh2miWHEpBgQCAb7//nv4+/sjJSWF73CatAcPHmDixImYPHkyFi5cyHc4DNNszZ07F4WFhdi3bx/foTQbx48fh5ubG3799VdMnjyZ73CYJowVl2JiypQp0NTUxLZt2/gOpcnKz8+Hra0tOnTogN27d/MdDsM0a1paWnB2dmZ9/TaS+/fvY8KECRg/fjx++uknvsNhmjhWXIoJeXl5zJs3D7t27UJubi7f4TQ5QqEQkydPxqtXr3D48GEoKiryHRLDNHseHh549uwZDh06xHcoTVp2djZGjx6Nrl27ws/PDwKBgO+QmCaOFZdiZM6cORAIBPDx8eE7lCbnp59+QnR0NIKDg6Gnp8d3OAzDoLKv37Fjx8LLy4vvUJqs0tJS2NnZoaKiAmFhYZCXl+c7JKYZYMWlGFFTU4OLiws2bdqE0tJSvsNpMg4ePIjff/8dO3bswIABA/gOh2GYtyxZsgRXr15FXFwc36E0OUQEFxcXXL9+HREREdDS0uI7JKaZYMWlmFm0aBEyMzMRGBjIdyhNQkJCApydnTFv3jy4uLjwHQ7DMO/o06cPvvrqK9bXrwj83//9HwIDAxEaGopu3brxHQ7TjLDiUsy0adMGEydOxO+//w6hUMh3OBItOzsbtra26NWrF/vhYhgx5uHhgaNHj+L27dt8h9JkhISEYNWqVdi8eTOsra35DodpZlhxKYY8PDxw//59REVF8R2KxCorK4OdnR2EQiEOHjwIOTk5vkNiGKYOI0eOhImJCevrt4Fcu3YNU6dOxcKFCzFnzhy+w2GaIVZciqFu3brhm2++YVfbPsOCBQtw+fJlhIWFQVNTk+9wGIZ5D4FAgB9++AEBAQGsr9/P9OzZM4waNQoDBw5kvyEMb1hxKaY8PDxw+vRpXLp0ie9QJI6vry927doFX19f9OrVi+9wGIaphylTpkBbWxtbt27lOxSJlZ+fjzFjxqB169YIDAyEtLQ03yExzRQrLsXU4MGD8eWXX2LDhg18hyJRLly4ADc3Nyxfvhzfffcd3+EwDFNPsrKymDt3Lnbt2oWcnBy+w5E4FRUVcHBwwMuXL3H06FGoq6vzHRLTjMnwHQBTt0WLFsHBwQEPHz5Ex44duemPHj1CZGQkFi5ciHPnzuHYsWMwNjaGo6MjpKT+d76QlJSEo0ePIicnB3379q02jvajR4/g6+uLVatW4dixY7h79y4WLVoEWVnZ964nztLS0mBvb4/hw4dj1apVAN5/nHl5eQgKCsK9e/fQoUMHTJ06FSoqKtz2iouLERISgjt37sDS0hLDhg2DoqIijhw5gry8PACVt/PGjRsHeXl5XL9+HQ8ePABQ+QyZmppao78HDCPJZs+ejbVr18Lb2xuenp7cdJbzPmzhwoWIjY3FqVOn0K5dOwAs/zE8os9gZ2dHdnZ29VoWAAUFBX3O7pqd8vJyMjQ0pDlz5nDTtm7dSioqKqSjo0MBAQFkampKioqKBIDGjx/PLTdv3jwaMGAAZWVl0fHjx0kgENC6deuIiMjPz4+++OILAkC+vr7Us2dPAkDnz59/73rirKioiPr06UOdO3emnJwcInr/cSYmJtLo0aMpOjqaEhISqFu3bmRoaEivX78mIqKnT5/SgAEDyMfHh1JSUmjIkCHUoUMHKioqovT0dOrduzcBoHPnznExCIVCsrGxocDAQF7eA6Y6UeSnoKAgqm/a/Jj9M/+zePFi0tXVpZKSEiJiOa8+vL29SSAQ0P79+7lpLP8xb2vkei2YFZdibuvWraSkpEQvX77kpk2YMIGUlZXJ39+fiIjS0tLI0tKSAFB0dDQREamrq9Pq1au5dUxMTMjCwoJ7/dNPP3FJh4jo/v37JBQKP7ieuJo2bRppaGhQYmJitel1Hae1tTUdOnSIW+7YsWMEgFasWEFERNbW1uTq6srN//fff0kgEFBYWBgREcXExBAACggI4JYpKSkhW1tbkR0j83FYcSmZUlNTSU5Ojvbu3ctNYzmvblFRUSQjI0Nr1qypMY/lP6ZKYxeX7La4mJs+fTp++eUXbN++nbvVq6ysDDU1NTg4OAAAdHR0sHbtWgwaNAgxMTEYNmwYjhw5gi5dugAArly5AiJCUVERt92qsbUnTZoEAOjUqRMAfHA9ceTl5QU/Pz9ERkbCyMio2rzajjM9PR0xMTEwMzPD5cuXAQAFBQUwNzdHYWEhHj58iJiYGBw9epTbzsiRI/HixQtuhIuhQ4eiS5cu2LVrFyZPngwACAsLg729vciPl2GasjZt2mDSpEnw8vKCs7MzpKSkWM6rw7179zBx4kQ4ODjgxx9/rDGf5T+GL6y4FHNKSkpwd3fH1q1b4eHhAWVlZQCVz7q8rU+fPgDAdePRv39/HDp0CGFhYRg+fDjat2+P58+fc8u/u36VD60nbmJiYrBs2TJ4eXnBxsamxvzajjMpKQkA4OnpidatW9eYHxkZCQDVnj8CUGPotLlz58Ld3R23bt1C9+7dcejQIfzzzz+ffCwMw1RasmQJunbtimPHjmHkyJEAWM57V1ZWFkaPHo1u3bph9+7dtS7D8h/DF9ZaXALMmzcPJSUl8PX1rXMZOTk5yMvLcw9ye3p6Yu/evfDx8cGUKVMgLy9fr3196np8SExMxHfffYeJEyfihx9+qPd6VR2qX79+vca8/Px87mw/Ojq6xvzMzEzu/05OTlBTU8O2bdtw7949GBkZsc7aGaYBdOnSBSNGjHhvP43NMedVKS4uxpgxYyAUChEWFvZRMbP8xzQGVlxKgFatWsHZ2Rl//vknysvLAVQml7dduHABJSUl6Nu3L+Lj47F+/Xq4u7tDQUGBW6byUYq6fep6fMjPz4etrS0MDAzg7e39Uet26tQJ0tLSWLlyJUpLS7npmZmZCAgIgImJCaSkpBAZGYmKigpu/qNHj3Dt2jXutYqKCpydnREQEID169fD1dX18w+MYRgAlX39xsXFcX39NvecV4WI4OLigjt37iAyMvKjB4lg+Y9pDKy4lBCLFy9GcnIywsLCAAC5ublITk7m5kdFRcHc3Bzjx4+HkpISACA8PBzl5eWIjY3FzZs38fr1ayQlJeHJkycoKysDUDn+dpX6rCcOhEIhHBwckJWVhcOHD3Nx16a249TQ0ICbmxsuXbqEgQMHYv/+/fD19YWDgwMmTZoEXV1dODk54datW7C3t8fJkyexfft2rFixAt9880217bu7u6OoqAjZ2dncFRSGYT7foEGDYGFhwQ0J2Zxz3ttWrVqF4OBgHDx4EF27dn3vsiz/Mbz5nOZArLV447KzsyNzc3OaPn06KSsr05gxY2j79u3k6upKVlZW9OTJE25ZR0dHkpKSIm1tbdq1axetXr2apKSkaPHixRQaGkqdOnUiAGRvb083b96s13ri4qeffiJZWVmKi4t773LvO843b96Qk5MTASAApKamVq31ZG5uLo0bN46b3759e7p69Wqt+xk2bBhFRUU1zMExDYa1Fpd8wcHBJCUlRXZ2ds0651UJDg4mgUBAO3fu/OCyLP8xb2NdETF1unLlCgGgESNGcP3A3bhxgx4/flzr8i9fvqTS0lLu9atXr+q1n09drzEcPHiQBAIB7d69u0G2l5mZSfHx8VRYWFjr/OfPn1NCQkK19+NdycnJJBQKGyQepuGw4lLylZeXU8eOHalz587NNudVuXLlCikpKTVo0cvyX/PBuiJi6tSnTx8MHDgQ//33H4DKB7PNzMzqXP7dZ3E0NDTqtZ9PXU/Ubt68CScnJ8yZM6fBnu9p3bp1rS0mq+jq6kJXV/e922jbtm2DxMIwTHXS0tJYtGgR5s+fD01NzWaX86o8ffoUo0ePxqBBg7Bu3boG2y7Lf4yosGcuJYyHhwdSU1O54beai1evXsHW1hY9e/Zk460zTDMydepUyMjI4PXr13yHwov8/HyMGTMGurq6CAoKgrS0NN8hMcwHseJSgpSVleHp06eQkZHBmzdvsGLFCqSmpvIdlsiVl5fDzs4OFRUVOHjwIOvugmGaibKyMvj6+kJOTg4lJSVYsmRJs8h5VSoqKjB58mSu8eK7fU8yjLhixaUEkZWVhbu7O3x8fCAjI4OZM2dCT0+P77BEbtGiRbh06RIOHjxYoyNfhmGaLllZWcyZMwdPnz6FsrIy9PT0mkXOq7JgwQKcOHEC4eHh7PYzI1FYcSmBHBwc8MUXX2DLli18hyJyfn5+2L59O/bu3YvevXvzHQ7DMDxo2bIlpk6dig0bNnB9/TZ1mzdvxo4dO/D333+jb9++fIfDMB+FFZcSSFZWFvPmzYO3tzdycnL4DkdkLl68iFmzZuHHH3/ExIkT+Q6HYRge/fDDD0hNTUVoaCjfoYhcVFQUFi9ejHXr1mHChAl8h8MwH40VlxLKzc0N0tLSdY4pK+nS09Nhb2+PQYMG4ddff+U7HIZheGZgYABbW1usW7dOrEfQ+Vx3797FxIkTMWXKFHh6evIdDsN8ElZcSihVVVXMnDkTGzdurDEsmqQrLi7G2LFjoaKiggMHDrDWkQzDAKjsLePmzZs4deoU36GIxIsXL2BjY4Pu3btj165dfIfDMJ+MFZcSbMGCBXj9+jX279/PdygNyt3dHffv30dYWBhatGjBdzgMw4gJc3NzDB48GOvXr+c7lAZXXFyMcePGQVpaGmFhYZCXl+c7JIb5ZKy4lGBt2rTB5MmT4eXlBaFQyHc4DeLPP/+Er68v9u/fDxMTE77DYRhGzHh4eCAqKgoJCQl8h9JgiAgzZsxAYmIijh079t6OzRlGErDiUsItWbIESUlJOHLkSI15Dx8+5CGiTxcbG4ulS5di7dq1GDlyJN/hMAwjhkaMGAEzM7NaB1PIyMhAfn4+D1F9nhUrViAkJATBwcEwNjbmOxyG+WysuJRwnTt3xogRI7jbRESEI0eOwMrKCgMHDuQ5upqSkpJqnf7kyRNMmjQJ3377LTw8PBo5KoZhJMmiRYtw4MABJCcnAwASExPh6uoKfX193Llzh+foaiorK6uz6A0KCsKaNWuwdetWDBkypJEjYxjRYMVlE+Dh4YGzZ89i+fLl6NKlC0aNGoWLFy/i5cuXYteqcuzYsXB2dq7WCKmgoABjxoyBnp4e9u3bB4FAwGOEDMOIu0mTJkFHRwdLly7F2LFj0blzZ/j5+aGkpAQvXrzgO7wajh49in79+nHFcJXz58/D2dkZnp6emDVrFk/RMUzDk+E7AObz5OfnIyEhAbKyslizZg1XmAmFQgiFQmRnZ4vN8zu3bt3C3bt3cf/+fdy+fRuRkZHQ0dHB9OnTkZ6ejqtXr0JJSYnvMBmGEWNEhKioKMjKyiIwMBCysrIgIpSWlkJGRgbp6el8h1iDj48Pbt++jV69euHIkSP48ssv8eTJE9ja2mLkyJFYs2YN3yEyTINixaWEysjIwM6dO7FhwwYUFRVxo1a8e6XyxYsXYlNc+vv7Q1ZWFmVlZfjvv//Qo0cPjBkzBuHh4YiJiYGBgQHfITIMI6ZKS0tx4MAB/Pbbb0hMTOS6KCsrK+OWkZaWRkZGBl8h1iojIwNRUVEAgJycHAwYMAA7duzA5s2bubs1UlLsJiLTtLDiUgKlpqaiW7duyMvL++Bt74yMDHTr1q2RIqubUCjEvn37uB+CsrIyvHr1Cnv37sWUKVPE8vlQhmHEx9ixY3Hs2DHu7kxFRUWNZYRCodjdFvf19a0Wc0VFBWbOnAk1NTXcvXsXysrKPEfIMA2PnS5JID09PQQFBUFGRua9Z7xSUlJik2hPnTpV44pCVfdJ/v7+cHV1rXYFgmEY5m1+fn4wNjaGjEzd10TKysqQlpbWiFF92J49e2odD72goACLFi1CUVERD1ExjGix4lJCDR8+HBEREZCSkqqzAYw4PX/k7+8POTm5Oufv3bsXAwcOxMuXLxsxKoZhJIWmpibOnj0LfX19yMrK1rlcampqI0b1fufPn6+zSzihUIhDhw6xvMc0Say4lGDffPMNgoKC6iwuBQKBWDx/VFRUhODgYJSWlta5TEVFBS5evIivv/6anckzDFMrLS0tnDp1Ctra2nUWmOJytwaoPGl+XyFcXl6O+Ph49O3bFw8ePGjEyBhGtFhxKeFsbW2rPdPztrKyMrFItJGRke8tGKti/+abb/Dvv/9CUVGxsUJjGEbC6Onp4fz589DU1Kz1FnlWVpZYdMFWUFCAwMDA9z7uIyMjA4FAgLFjx0JbW7sRo2MY0WLFZRPg6OiIv/76q0aBKRQKxeIWkZ+fH9ey812ysrLQ1NSEn58fjh07hvbt2zducAzDSJx27drh9OnTaNGiRY0Cs6ysDDk5OTxF9j8hISEoKSmpdV7V40yWlpa4ceMGNm3ahBYtWjRyhAwjOqy4bCKmTZuGzZs315j+/PlzHqL5n1evXuH48eM1Hmivaozk5uaGhw8fwsnJiacIGYaRREZGRjh37hzU1NRqFJjicMfG29u71ukyMjLQ1NSEr68vzpw5A1NT00aOjGFEjxWXTci8efNqjLfL94PigYGBNW5RSUlJoWvXrrh8+TK2bNkCVVVVnqJjGEaSderUCSdPnoSSklK1uyN8F5eJiYm4fPky1yMGUHmXRk5ODj/88AM7oWaaPFZcNjGLFi3CypUruVvkeXl5vHbx4+vryxWXMjIyUFFRwYYNG3D9+nWYm5vzFhfDME1Djx49EB0dDXl5eUhLS4tFQ8a///6bu5paVfRaW1vj/v37WLduHVRUVPgMj2FEjhWXTdCqVauwZMkSAJUj9vCVaB89eoT4+HiuuJw0aRIeP36MBQsWsBEpGIZpMBYWFoiJiYGcnByIiNcu2MrLy/HXX3+hrKwMUlJSMDQ0RGxsLI4cOcJGIWOaDfYL30StXbsWc+fOBcDfLSJ/f38QEQwNDXH69Gns27cPmpqavMTCMEzT1q9fPxw+fBhycnK8XrmMiopCZmYmd5fmzp07GDJkCG/xMAwf2PCPTdiWLVtQXl7OW3F56NAh/Pbbb1i8ePF7O1BnGIZpCNbW1oiIiEBYWBhvMfj6+mLGjBlYs2YNtLS0eIuDYfjUZIvLixcv1mjc0hwREXbu3Ak/P79G3W9ZWRl0dXVx48YNODg4NOq+G9v3338PS0tLvsNgmqkNGzbg4sWLfIchVt68eQN7e/tG3y8RIS8vDwKBAO7u7o2+fz6w/MfUpsneFk9JSUFoaCjfYfBOIBBASUmp0fcrKysLZWXlRt9vYwsNDUVKSgrfYTDN2MWLF3Hp0iW+wxArfOUegUAAdXV1XvbNB5b/mLo02SuXVUJCQvgOgWnC6hp6k2Eak4WFBct1TKNj+Y+pS5O9cskwDMMwDMM0PlZcMgzDMAzDMA2GFZcMwzAMwzBMg2HFJcMwDMMwDNNgWHHJMAzDMAzDNBhWXDIMwzAMwzANhhWXDMMwDMMwTINhxSXDMAzDMAzTYFhxyTAMwzAMwzQYVlwyDMMwDMMwDYYVlwzDMAzDMEyDYcUlwzAMwzAM02BYcckwDMMwDMM0GFZcMgzDMAzDMA1Ghu8AxN0///yDSZMmQUZGdG/VlStXkJiY+N5lFBQUYGdnJ7IYGlJ5eTkOHz6MnTt3YvTo0ViwYAHfIVWTlJSE8+fPQ19fH0pKSvjyyy/5DolhGo045htxjOlzsBzINHfsyuV7FBUVYeHChYiIiBDpfvr27QtjY2PMmDED8+fPh4qKCvdPVlYWSUlJcHNzE2kMDSk1NRVpaWk4ceIEysrK+A6nmrCwMGzZsgWOjo4YPHgw7t69i3Xr1vEdFsM0GnHMN+IY0+dgOZBp7tiVy/fYv38/Xr16he3bt8PW1lak++rbty/atGmD4uJijB07tsb8169fg4ggEAhEGkdDaN++PSZPnoz58+fzHUo1t27dwsaNG3H27Flu2rRp0zBt2jQcP34cw4YN4zE6hmk84phvxDGmT8VyINPcsSuX7+Ht7Y2BAwfi5MmTuHfvnsj3JysrW+e877//HkKhUOQxNBRRPkbwKSoqKjB+/Hg4ODjUmPd///d/cHNzw5s3b3iIjGH4IY75Rhxj+lQsBzLNmXh9+8XImTNn0KVLFzg6OiIuLg7bt2/Htm3bqi0TFBQEoVAIWVlZ7lmg0NBQlJWVQVFRsdrZd2FhIf755x+8fPkSXbp0wZAhQ6CmpgYpKakPnomfOHECQ4YM4f7/8uVLbp6NjQ0SExPx8OFDAMCwYcPQqlUrAJXP1Rw9ehQ5OTno27cvRowYwa339OlT/P3331i6dCkyMjLg6+sLbW1tTJo0CS1atMCjR48QEhICOTk5TJs2DRoaGqI/o7IAACAASURBVNy6jx49QmRkJBYuXIhz587h2LFjMDY2hqOjI6SkKs9X6jqmvLw8BAUF4d69e+jQoQOmTp0KFRWV9x5/fd67kpISxMXFIS4uDrq6uvjmm29gaGjIbePw4cN4/vw5Jk+eXGP7enp6UFVVxc8//4w///zzvbEwTFP3dr6pUlcuYTmQ5UCGqRV9Bjs7O7Kzs6vXsgAoKCjoc3b3UYKCguhzDs/Ozo7i4+OJiKhLly6kqqpKeXl51ZbJy8uj/v37k5qaGjctLS2NTE1N6YsvvuCmZWZmkqGhIfn5+VFpaSl5enoSAGrfvj1ZWVlxyxkbG5OOjk61fRQXF5O1tTX3+tWrVzRt2jQCQFOmTCEiopSUFFJUVKR///2XhEIhERHNmzePBgwYQFlZWXT8+HESCAS0bt06IiIKDAwkPT09AkAhISHk6OhIDg4OJC0tTba2thQXF0cTJ04kBwcHkpGRIRsbG27/W7duJRUVFdLR0aGAgAAyNTUlRUVFAkDjx4/nlsvNzSUAtH79em5aYmIijR49mqKjoykhIYG6detGhoaG9Pr16zo/h/q8d0VFRTRo0CA6cOAAvX79mrZu3Uqqqqp08OBBbjuDBw8mMzOzOvfj5uZG+vr6dc6vS2N/r5n6E0V++pi88jH7/xyfup/65Bui9+cSlgObdw5k+U9yNHK9FsyKy1okJyfToEGDuNdbt24lALR9+/Yay86dO7daYiUicnFxqZZYFy5cSGpqalRWVkZElYkQAC1btqzaesbGxqSgoED29vZkb29PY8aMIWVlZdLV1a22XGlpKVlZWZGqqiolJyfTggULKCwsrNoy6urqtHr1au61iYkJWVhYcK9/+eUXAkCHDx/mps2ZM4cA0L59+7hpy5cvJwCUm5vLTZswYQIpKyuTv78/EVX+mFhaWhIAio6OJqLaE6u1tTUdOnSIe33s2DECQCtWrKjxvn7Mezd58mSaNm1atfXs7OxIUVGRUlJSSCgUkoKCQrUfiHetXLmSAFB2dnady9SGJVfxxYrL96tvvvlQLmE5sPnmQJb/JEdjF5fsmcta7Ny5E3PmzOFeOzs7Q0VFBTt27KixbNUtkPdNS0pKqnb7Qk9PDx07dsS5c+dqrKuhoYHg4GAEBwfj8OHDyMjIgLm5ebVlZGVlsW/fPgDA6NGjoaCggHHjxlVb5siRI5g9ezaAym4+iAhFRUXc/KrbMF999RU3rUePHgAAKysrblrnzp0BAM+fP+emKSsrQ01NjXt2R0dHB2vXrgUAxMTE1DgmAEhPT0dMTAwuXLiAH3/8ET/++COOHDkCc3NzFBYW1roO8OH3rrCwECEhIejZs2e19WbPno2ioiL8/fffSE9PR3FxMXR1devcj5aWFgAgISGhzmUYpqmpT775UC5hOZDlQIZ5Fysu31FcXAx/f38EBATAzs4OdnZ2mDZtGlq1aoU7d+7g9OnTH71NKysr5OTk4MqVKwAqn41JS0tDr169PriusrIyXF1da0w3MDDAmjVrcPPmTZiYmNSY379/f8TFxcHR0RGJiYlo3749Kk9IKtX2XJC8vHyN7cjJyQFAje403n2eqE+fPgCAlJSUWo8jKSkJAODp6Ym1a9di7dq12Lp1K65evYo//vij1nWAD793Fy5cQFlZWY2H542MjAAAiYmJyMjIAACoqanVuZ/WrVsDAB48eFDnMgzT1NWWbz6US+qD5UCWA5nmhRWX7wgMDMSsWbMQHh6O0NBQ7t+hQ4cAANu3b//obS5atAh2dnbw9PREbGwsFi9ejH79+uHXX3+t1/ojR44EgGpn3UKhEOfOncOQIUMwf/78GgnN09MTe/fuhY+PD6ZMmVJr0mxIcnJykJeXR7t27eqcDwDXr1+vMS8/P7/O7X7ovauoqABQmWDfVpUojY2N0bFjRwgEAmRnZ9e5n6pWktra2nUuwzDNwbv5piFyCcuBLAcyzQsrLt+xe/fuWs+Se/bsCQsLC4SHhyM1NZWbrqamhpKSkmrLEhH3Bw9UnuHq6upi48aNEAqFcHd3R0xMDFRVVesdV0VFBZYvX869Xr16NZydnREQEABZWVk4OztzZ+Xx8fFYv3493N3doaCgUC2uhlJcXFzt9YULF1BSUoK+ffvWunynTp0gLS2NlStXorS0lJuemZmJgICAOvfzofeuZ8+ekJeXx/nz56utl5mZCQAYMGAAVFVVYWhoWK2F6bvS0tIAVF4NYZjmrirf1CeXsBxYieVAhvkfVly+JSIiAurq6tDU1Kx1/tixY1FeXl5tNAN9fX2UlJQgJiYGRISgoCBcuHABubm5yM3NRUVFBby8vBAXF4eUlBTIysoiNzcXd+/eRXl5ebXt5+bm1trPmFAoxLJly7g/+qioKGRnZ2PEiBHQ1taGl5cXTp06BS8vLwCAkpISACA8PBzl5eWIjY3FzZs38fr1ayQlJeHJkycoKCgAgGr7q7rt8/bVgaoY340rNzcXycnJ3OuoqCiYm5tj/PjxAFBj+xoaGvh/7N15WFR13z/w97Ajmwi4xaYsiruGJgoSt+KSS6UsAoIaReZS6lNqqWHbXdnl0nL7mGihprJoamoqmjvKrblE5gYEOqDIEiKyL9/fH/44TxPunuGwvF/XxXUxZ875ns+M44f3nHXKlClISkqCt7c3Nm7ciOjoaISEhCAoKAgAcODAAQQFBeGvv/6Sxn3Ye9e6dWvMmDED6enpOHjwoLTctm3b4O/vD29vbwB3G/DDGmvLli2l46uImrpH6TeP0kvYAyHVxB5I9P89zelATels8f/85z/CxsZGtG7dWnz22WeiqqpK4/lDhw6JAQMGCABCpVKJ8PBwkZWVJYqLi0W3bt0EANGmTRuxdu1aERERISwtLcXbb78t8vLyxI4dO4SRkZEAoPFjb28vEhISxH//+18xc+ZMabqnp6cYN26cGDdunBg2bJjo2LGj0NXVFdnZ2WLz5s3CzMxMvPLKK1KNK1asEACErq6umDdvnigpKRGhoaFCR0dHtGnTRqxcuVJ8/PHHQkdHR7z99tsiISFBqnnKlCni8uXL4ueffxZ9+/aVLu+RnJwsDhw4IDw9PQUA4efnJy5cuCCEEOKVV14RJiYmYsyYMeI///mPiIiIEJ6eniI9PV0IcffMyTfeeEMAEF26dBHbtm0TQghRXFwswsLCpNdpbm6ucebk22+/LQCI//73v9K0h713QghRXV0tZs+eLWxsbMTcuXPFxIkTRUBAgCgtLZXG2bhxozA0NBR37ty557+/h4eHmD179iN/XmrV9+eaHh3PFr+3x+k3QogH9hIhBHtgM+6B7H+NBy9FJJOnvc7l46ipqRHJycmiuLhYCHH3WmYlJSXS8/Hx8WLTpk0iLy9PXL58WZw5c0YcPHhQfP311xqXPJJbTk6OqKiokB7/9ddfsoz7yiuviPbt24vy8nJx9uxZ8eeffz7W8rm5ueL06dMa75EQQlRWVorU1FSNaY/z3pWUlIgzZ85oNNS/GzFihPjpp5/qTL9w4YIwNDQUaWlpj/U6hGBzbcgYLuXzsF7CHtg8eyD7X+NR3+GSd+iRgUqlQvfu3aXHtWfpAUBqaiqmTZuGrKws6OnpSXeOAIAuXbpIZwBqwz937//9DhNyMDAwQK9evR57OWtra+lg87/T09PTuKPE4753xsbGdS7H8XfffvstJk2ahJEjR2pcKiUqKgorVqxAx44dH/u1EDUHD+sl7IGPhz2Qmjoec6llarUaOTk5CA0NxZEjR6BWq6FWq7F//368+eabiIyMVLrEx1ZSUlIv96CV+72zs7PD9OnTNY6ZjYmJgbGxMV555RW5yycisAc+DfZAaqwYLrXMx8cHe/fuhY2NDaZMmQJXV1eMHDkSe/fuxapVqzS+pTZ0lZWVWLFiBQ4fPoyioiIsXLhQ48x5uWnjvXv55ZcRFBSELVu24OjRo7C0tMQnn3yiheqJCGAPfBrsgdRYcbd4PRg6dCiGDh0K4O6lMP558d3GQl9fH1OnTtW4e5G2aeO969ChAy+3QVSP2AOfHHsgNUbcclnPGmtTbQj43hE1fvx//OT43lFjwXBJRERERLJhuCQiIiIi2TBcEhEREZFsGC6JiIiISDYMl0REREQkG4ZLIiIiIpINwyURERERyYbhkoiIiIhkw3BJRERERLJhuCQiIiIi2TBcEhEREZFsGC6JiIiISDZ6Shegbf7+/kqXQESkVUlJSex1RNRgNNlwaWdnBz8/P6XLoCbOz88PdnZ2SpdBzZiHh4fSJTRa169fx6+//ooxY8YoXUqjxP5H99Nkw6WHhwfi4+OVLoOISKtmz56tdAmNVlxcHAIDA/m3gkhmPOaSiIiIiGTDcElEREREsmG4JCIiIiLZMFwSERERkWwYLomIiIhINgyXRERERCQbhksiIiIikg3DJRERERHJpl4voh4YGIjAwMD6XCURNWNK36Vr8+bNUKlUitZAD8d/I2oO6rMf1lu4jI2Nra9VEREBgKK3pps9ezbv993AnThxAsuXL+ffJ2oW6rMf1lu4DAgIqK9VEREpzsPDg/f9bgSWL1/Ov09EMuMxl0REREQkG4ZLIiIiIpINwyURERERyYbhkoiIiIhkw3BJRERERLJhuCQiIiIi2TBcEhEREZFsGC6JiIiISDYMl0REREQkG4ZLIiIiIpINwyURERERyYbhkoiIiIhkw3BJRERERLJhuCQiIpLJ1atXMX/+fDg6OipdCpFiGC6JiIhk8ueff+LQoUPIzMxUuhQixTBcEhERycTHxwcDBw5UugwiRTFcEhERyUhfX1/pEogUxXBJRETNXnl5ORISEjB//nz85z//QVpamsbzaWlpWLhwIaqrq7Fz504sXrwYlZWVAIDKykrExcXh3Xffxd69e1FTU1Nn/Nu3byMqKgqzZ8/GN998gzt37jzS2ESNEcMlERE1a2VlZRg+fDgKCgrwzjvvQAiB3r1748cffwQArFu3Dp6envj444/xww8/4P3338fcuXNx6tQpFBYWYsSIEbh48SLeeecd3Lx5E0uXLtUYPyUlBRMmTICDgwMmTpyIb7/9Fr169cKtW7ceODZRY8VwSUREzVp4eDg6dOiAwMBAtGzZEtOnT8ewYcMwYcIEZGZmIiwsDOHh4dL8Z86cwaVLl+Dh4YH33nsPZmZmiIyMRKtWrRAWFoahQ4dqjD9t2jS88sorGDp0KHr27IkvvvgCaWlpWLp06QPHJmqsGC6JiKhZi4+PR+/evTWmvfHGGygtLcX3338PADA2NgYABAUFAQA6deqE3NxcREVF1QmTPXr0kH6/ceMG9u3bh+PHj+Pdd9/Fu+++i127dsHd3R0lJSX3HVulUmnhlRLVDz2lCyAiIlJSZWUl9PQ0/xy6uLgAAK5cuQIA9wx7v/32GyorK9G2bVuN6X+fNyUlBQAwZ84cWFtb33P9DJLU1HDLJRERNXvHjx/XeFwbBF1dXe+7TFFREYC7Wyfvx8DAAMDd3d33W56oqWG4JCKiZs3Q0BCJiYka03JzcwEAXl5e912uc+fOAIDdu3fXea72jPFOnTpBV1cXkZGRqKio0Bh/w4YNT107UUPEcElERM3ajBkzkJ6ejoMHD0rTtm3bBn9/f3h7ewOAdGmg/Px8aZ4uXbpg+PDh2LlzJ6KjowEAFRUVOHfuHIQQUKvVMDMzw5QpU5CUlARvb29s3LgR0dHRCAkJkY6xvNfYRI0Zj7kkIqJm7fPPP0dNTQ0CAwPxyiuvIDs7G6WlpVi3bh1UKhW2bNmCTZs2AQDeeustLFiwQDppJzo6Gv7+/pg8eTI+/fRTdO7cGZaWljA1NcXixYsxb948LF68GEVFRVi3bh2SkpJgbm6OtWvXwsLC4oFjEzVWKiGEeNKF/f39Adw9046IqLFSqVSIjY1FQEDAA+eLi4tDYGAgnqJtUgPyz3/P0tJSXLp0CW5ubjAyMnqssdLS0lBdXQ0XFxdkZGTAysoK5ubmGvPk5eXh2rVrcHNzk84QJ2poHrUfPkA8t1wSERHh7iWB/nlJokfl5OQk/d6hQ4d7zmNtbX3fM8aJmhIec0lEREREsmG4JCIiIiLZMFwSERERkWwYLomIiIhINgyXRERERCQbhksiIiIikg3DJRERERHJhuGSiIiIiGTDcElEREREsmG4JCIiIiLZMFwSERERkWwYLomIiIhINgyXRERERCQbPaUL+Dt/f39s3rxZ6TKIFOPn54f4+Hily6B6EhcXh8DAQKXLaPZUKpXSJTRrQgilSyCZNahwCQD9+/fHrFmzlC6DqN4tW7ZM6RJIIbGxsUqX0CydOHECy5cv5/uvkNr3n5qeBhcubW1tERAQoHQZRPWOWyybL/Y85Sxfvpzvv4IYLpsmHnNJRERERLJhuCQiIiIi2TBcEhEREZFsGC6JiIiISDYMl0REREQkG4bLZiAzMxORkZGwt7dHWVmZrGNfvXoV8+fPh6Ojo6zjEhE9KfY8ImUxXDZR5eXl0u9paWk4duwY1Gq17Ber/fPPP3Ho0CFkZmbKOi4R0eNgzyNqOBgum6j58+ejpqYGAODt7Y1BgwZpZT0+Pj4YOHCgVsYmInpU7HlEDQfDZRP0+++/Y+XKlRrT9PX1tbY+bY5NRPQw7HlEDUuDu0NPc5GRkYHvv/8e8+bNw82bNxEdHY02bdogKCgILVu2RFpaGuLj42FgYIDJkyfD0tJSY/nbt28jNjYWFy9eRMeOHTFp0iSYmpoiMTERwcHBKC4uRkxMDPT19eHv7y8tp1KpcPHiRcTGxsLR0REhISEajbK8vByHDx/G4cOH0b59ewwfPhxOTk4a666srMTWrVtx9uxZPP/889LWglrFxcVYsmQJAgMD0alTJ2l6SUkJ1q9fj5ycHLi5uWHw4MEwNzeHjo6OdG/fR1k/ETU+DbXnAUBCQgJ7HpGMuOVSATExMfDy8sKHH36IXbt24f3330dqaipmzJiB8PBwHDlyBAsWLMD58+cxd+5cTJgwQWP5lJQUTJgwAQ4ODpg4cSK+/fZb9OrVC7du3YIQAl5eXgAACwsLWFhYaCy7Z88efPbZZ0hPT8fkyZPxxRdfSM+VlZVh+PDhKCgowDvvvAMhBHr37o0ff/xRmqewsBAjRozAxYsX8c477+DmzZtYunSpxjqOHz+OyMhIfPfdd9K0vLw89OjRA8bGxpg3bx5OnTqFVq1awdnZWdp99SjrJ6LGp6H2vMrKSgBgzyOSm3gKfn5+ws/P72mG0Op4DdkHH3wgAIjt27dL06ZOnSoAiHXr1knTFixYIACIwsJCaZqvr6/YunWr9Hj37t0CgFi4cKHG2DU1NdI8n3zyiQAgtmzZIk0bM2aMcHR0lB4HBweLyZMna9Tp5+cnjI2NhVqtlmp86aWXNOYZNWqU0NXVlR5XVVWJ7du3i/z8fGnazJkzhbm5uaisrBRCCKFWqwUA8d577z3W+puy5vT5b2gAiNjY2IfOFxsbK56ybWp1vIasIfY8T0/POu8/e179aU6f/8bkUfvhA8Rxy6VCTE1NAUDjoPOePXsCADw9PaVpnTt3BgBkZWUBAG7cuIF9+/bh+PHjePfdd/Huu+9i165dcHd3R0lJyUPX+8ILL0i/Ozk5ITc3F8Dd3Tfx8fHo3bu3xvxvvPEGSktL8f333yMnJwdRUVEYOnSoxjw9evTQeKyrq4sxY8agVatW0rSUlBSNXUG2trZwdnbGsWPHHnn9RNR4NcSed+LEiTrzs+cRPT0ec6kQHZ27ub628QCAoaFhnfkMDAwA/N/um5SUFADAnDlzYG1t/VQ16OvrS+MeP34clZWV0NPT/Ei4uLgAAK5cuYLffvsNlZWVaNu2rcY8f38N9+Pp6Yldu3bh5MmT8PDwQHl5Oa5fv45Ro0Y98vqJqPFqiD2vurq6zjzseURPj1suG5naxnvmzJk6zxUVFT3xuLVN9vjx4xrTa5u5q6urNP6NGzcee/xZs2bBz88Pc+bMwf79+/H2229jwIAB+PDDDx95/UTU/Gi75/0Tex7R02O4bGQ6deoEXV1dREZGoqKiQpqem5uLDRs2aMx7v+Z5L71794ahoSESExM1ptfuQvLy8pJ2V+3evbvO8v88e/KfVCoV2rdvj2XLlqGmpgbTpk3Dvn37YGZm9sjrJ6LmR5s9716XFGLPI3p6DJcKuXPnDoC7l7CoVbu7prS0VJpWVVWlMZ+lpSWmTJmCpKQkeHt7Y+PGjYiOjkZISAiCgoIAADY2NgCA06dP4+jRoygrK5OOTfr7MUrV1dWorKxERUUFWrdujRkzZiA9PR0HDx6U5tm2bRv8/f3h7e2NLl26YPjw4di5cyeio6MBABUVFTh37hyEEFCr1aiqqkJ2djYCAgI0mubixYtx+PBhqNVq6Ovro7CwEBcuXJBe36Osn4gar4bY84YPHw4A7HlEcnua04F4tviTSUhIEN26dRMAxJQpU8Tly5fFzz//LPr27SsAiAkTJojk5GRx4MAB6WxGPz8/ceHCBSGEEMXFxSIsLEwAEACEubm5xpmUf/75p2jTpo2wtLQUq1evFj/99JPo3LmzACCmTZsmUlNTRUxMjOjYsaMAIObMmSPy8vJEdXW1mD17trCxsRFz584VEydOFAEBAaK0tFQaOzs7W3h5eQkAwtXVVYwZM0ZMmDBBmJqaiunTp4vMzEyxf/9+AUBERkZKy+3YsUMYGRlJNdf+2Nvbi4SEBCGEeKT1N2XN5fPfEIFni2tVQ+15MTExAgB7nkKay+e/sXnUfvgAcar/P9ATqb1QbXx8/JMOodXxmrq8vDxcu3YNbm5uMDY21niusrISVVVVdaY/itLSUly6dAlubm4wMjK65zxpaWmorq6Gi4sLMjIyYGVlBXNzc+n5lJQUODk5SQfxb968GVVVVfD19UV+fj6Ki4tRWFiI8+fPY8uWLRrf3B9l/U0RP//KUalUiI2NRUBAwAPni4uLQ2BgoGz3q5Z7vKZO7p5X+/6XlJSw5ymAn/+G6VH74QPE82zxRsza2vq+Z0/q6+s/8S3KjI2N61we45/+fgeJDh061Hm+9oxHAEhNTcW0adOQlZUFPT09WFlZSc916dIFJ0+efOz1E1Hzw55H1DgwXJLWqdVq5OTkIDQ0FG+88YbUmC9fvozVq1fjk08+UbhCIiL5sOdRc8dwSVrn4+ODvXv3YufOnZgyZQrS09Ph4uKCYcOGYdWqVRq7loiIGjv2PGruGC6pXgwdOlS6y4UQ4pEuQkxEJJecnJw6d71JTk4GAHz++eca0y0tLREREfFU62PPo+aM4ZLqHZssEdW3Vq1a4YsvvkBBQYF0bKYQAvr6+oiMjJTmKy8vx+uvvy7rutnzqLnhdS6JiKjJ09PTw/jx46Grq4vy8nKUl5ejoqIClZWV0uPy8nIAQHBwsMLVEjVuDJdERNQsBAUFSRduvx8bGxt4enrWU0VETRPDJRERNQsDBgzAM888c9/nDQwMMGnSJOlalUT0ZPg/iIiImgWVSoXQ0ND7Xg+zoqJCuqUkET05hksiImo2HrRrvGPHjryYOZEMGC6JiKjZ6NGjBzp16lRnuoGBASZOnKhARURND8MlERE1K/faNV5RUYHx48crVBFR08JwSUREzUpQUBCqqqqkxyqVCj179oSrq6uCVRE1HQyXRETUrHTs2BF9+vSRLm6uq6vLXeJEMmK4JCKiZicsLAy6uroAgOrqagQEBChcEVHTwXBJRETNTkBAAGpqaqBSqTBw4MAHXv+SiB4PwyURETU7bdu2xaBBgyCE4C5xIpkxXBIRUbNUe9b42LFjlS6FqEnRU7oAIiIiJfj5+SEhIQGtWrVSuhSiJoXhspnIyclBRkYGcnNzpZ/8/HwUFRWhqqoKlZWVuHPnDgDA1NQU+vr60NfXh6mpKaytrWFjYwNra2u0bt0ajo6OsLGxUfgVEVFzl5eXh7y8PBQVFaGwsBB37txBcXExiouLcevWLRQXF6O8vBxlZWUoLS3VWLagoAAAUFpaioCAABgYGMDExERjHgsLC+jo6MDMzAwmJiZo0aIFLC0tpd/NzMxgbW0Na2vrOssSNWcMl01MXl4efv31V/z66684f/48UlNTkZqaisLCQmmeFi1aSGHR3Nwcurq60NPTg5mZGQDgxo0bqKqqQnV1NW7fvo3c3Fzk5eWhpKREGsPCwgLOzs5wcXFBt27d4O7uDnd3d1hZWdX7ayaipqOiogJZWVlQq9W4evUq1Go1rl+/jhs3bkhhMj8/H3l5eaiurq6zfO2XYgsLC7Ro0QLGxsYa/a1Wbe8zNjYGABQWFuLmzZvS8zU1NVLfvH37NoqLi1FSUoJbt27ds25jY2NYWVnBxsYGrVu3lr6MOzg4wN7eHnZ2drC1tUXbtm3lequIGiyGy0YuMzMTv/zyC/bv34/ExESkp6cDABwdHdGrVy/4+Pjgtddeg7OzMxwdHdG2bdsn/oZdXFyM7OxsZGRkIDU1FSkpKUhNTUVUVBQWLFgAAOjQoQM8PT0xZMgQDB48mGdgElEdpaWluHLlivRz+fJlpKSk4Nq1a8jOzkZNTQ2Au7dktLW1lUJZ9+7dpS2FteHNxsYGZmZmsLCwkPa6aFtt0CwqKpICb+1Pbm4ucnJykJeXh5SUFMTExODGjRvSskZGRrCzs4ODgwNcXV3RqVMndOrUCS4uLnBwcJAuj0TUmDFcNkJnzpxBXFwctm3bhsuXL8PIyAgDBgzA5MmT0bdvX7i7u8Pa2lr29ZqYmMDJyQlOTk4YPHiwxnO5ubnSFtNDhw7h9ddfR1lZGbp06YIXX3wRAQEB6NWrl+w1EVHDVVNTg9TUVJw9e1b6uXTpEtRqNYQQ0NXVhaOjI1xdXdGvXz8EBgZKW/js7e3Rtm1b6ULnDYmJiQlMTExgY2ODjh07PnT+8vJyZGZmQq1W49q1a7h27RoyKmHtVwAAIABJREFUMjKQnJyM+Ph45ObmAgAMDQ3h7OyMbt26oXfv3tIPD0OixobhspFQq9WIiorCpk2bkJqaCkdHR/j5+eHrr7+Gp6entGtHKTY2NhgxYgRGjBiBhQsXorS0FMeOHcPevXuxceNGfPrpp3B1dUVQUBBeffVV2NraKlovEckvMzMTR48exYkTJ3DmzBn89ttvuHPnDvT09ODm5obevXtj8ODB0hY7JycnGBgYKF221hkaGkpfzO+loKAAKSkpuHz5Mi5fvozk5GR88803yMzMBADY2tqiV69ecHd3h6enJ5577jmYmprW50sgeiwMlw2YEAL79u3DihUrsHPnTtjY2CA4OBiBgYHo27dvg/xGX8vY2Bi+vr7w9fXFF198gf/+97+Ii4vDypUr8cknn2D06NGYOnUqhgwZonSpRPSE/vjjDxw5cgSJiYk4duwYrl69Cj09PfTu3RvPPvsswsLC0KdPH3Tr1g1GRkZKl9tgWVpaol+/fujXr5/G9NzcXJw7dw5nzpzB2bNnsXbtWixatAh6enro1asXPD094enpiUGDBnHrJjUoDJcN1P79+/Hee+/h1KlTePbZZ/Hdd98hKCioXo4nkptKpUL//v3Rv39/fPbZZ9i+fTtWrVqFoUOHonv37liwYAH8/PwadFgmIqCkpATHjx/Hjh07sG3bNly7dg2mpqbo2bMnxo8fj4EDB2LQoEGwsLBQutQmwcbGRvqSXis7OxunTp2SAv2KFStQUVGBLl26YPTo0RgyZAi8vb0b5d8KajoYLhuYxMREzJ49G6dOncLo0aNx9uzZJnWsooGBAfz9/eHv748zZ85g0aJFCAwMRL9+/bBkyRIMHDhQ6RKJ6G9u3LiB+Ph4bNu2DceOHUN1dTX69u2L8PBwjBgxAn369OFJKPWobdu2GD16NEaPHg0AKCoqwoEDB7B7927ExMTg888/h5WVFYYPHw5/f38MHz4choaGCldNzQ3v0NNA5ObmYvLkyfDy8oKFhQVOnTqF7du3N6lg+U99+vTBTz/9hJMnT8Lc3BxeXl4IDw9HXl6e0qURNWv5+flYtWoV/vWvf8HOzg4LFixAu3btEB0djZs3byIpKQnvv/8++vbty2CpMDMzM7z44otYuXIlMjIycP78ecybNw9qtRpjx45F27ZtMXnyZOzduxdVVVVKl0vNBMNlA7B161Z07twZ+/fvR1xcHBISEvDss88qXVa9cXd3R0JCAmJiYrB371507twZ27dvV7osombn0KFD8Pf3R7t27TBz5kxYW1sjNjYWN2/exIYNGxAcHKyVK1GQfLp27Yq3334bhw8fxrVr1xAZGYmLFy9i+PDhsLW1xfz583Ht2jWly6QmjuFSQeXl5XjzzTcxbtw4jBs3DhcvXoSfn5/SZSkmICAAFy9exEsvvYSXX34Zs2bNQkVFhdJlETVpd+7cwcqVK9G9e3f4+PggKysLa9asQU5ODuLi4jBu3DjFr0ZBT+aZZ57BzJkzkZSUhD///BNTpkzB999/j44dO2Ls2LH45ZdfIIRQukxqghguFVJQUIDBgwcjOjoaGzZswKpVq3hpCdzdxbN69WqsX78ea9asga+v733viEFET66kpARffvklnJ2dMXPmTLi5uSExMRHHjx9HaGgo+1ET06FDByxatAhqtRpbt25FUVERfH190bNnT8THxytdHjUxDJcKyMrKgpeXF65du4akpCQEBQUpXVKDExISghMnTuDPP/+Et7e3xh0uiOjJlZeX46uvvoKTkxMWLFiA8PBwZGVlIS4uDgMGDFC6PNIyXV1djB49Gvv27cOvv/4KBwcHBAQEwNPTE4cOHVK6PGoiGC7rWV5eHp5//nkIIZCYmIguXbooXVKD1bVrVyQmJqKiogI+Pj7Iz89XuiSiRu348ePo1asX3nnnHYwZMwYpKSn45JNPYGVlpXRppIA+ffpgx44dSEpKgqWlJXx8fBAQEICcnBylS6NGjuGyHpWVleGll15CVVUVDhw4ADs7O6VLavDs7e1x4MAB6b0rKytTuiSiRqeoqAjTp0+Hl5cXnJ2dkZaWhm+//RZt27ZVujRqAJ577jns2LEDu3fvxsmTJ9G1a1ds2LBB6bKoEWO4rEfTp0/HhQsX8PPPP6NNmzZKl9NotGvXDrt27cL58+fx5ptvKl0OUaNy6dIl9OnTB7GxsVi3bh127NjB26/SPQ0fPhy///47AgMDERYWhgkTJqC8vFzpsqgRYrisJ3v27MGaNWuwZs0auLm5KV1Oo9O1a1esXr0aq1evRkJCgtLlEDUKBw8exIABA2BjY4Pz588jJCRE6ZKogTMzM8M333yDPXv2YNeuXRgyZAivPUyPjeGyHpSWliIiIgJBQUF4+eWXZRu3vLwcq1atwrRp0/Dvf/8bR44cQVlZGXbs2PFE4xUUFKBLly5Yu3atbDXKady4cfD390dERAR3jxM9RHx8PIYPH45hw4bhwIED3FvyGJpbb70XX19fHD9+HFlZWRgwYABu3rypdEnUiDBc1oPvv/8eeXl5WLZsmWxj3rp1C3369MHJkycxceJE9O3bF99++y1MTU1x4MABjXkfdbeGnp4erKysGvQlSJYvX46bN282qiZNVN8OHTqECRMmYMqUKdi4cSOMjIyULqnRaK699V7c3NyQlJQE4O6Xe153mB4V7y2uZdXV1Vi6dCkmTZok65aDyMhICCEQFRUFlUoF4O43zZYtW9aZd/78+Vi8eDF0dB78XcLMzAxHjx6VrUZtaNeuHSZOnIglS5bg1Vdf5a3niP4hLy8PISEhGD16NJYtWyb1B3o0zbW33k/r1q2xfft2eHh4YNq0aYiKilK6JGoEuOVSy5KSkpCWloYZM2bIOu6pU6dgaGhY5w/H3LlzNab9/vvvWLlypazrVtqMGTOQkpKCkydPKl0KUYMzf/58qFQqrF69+qGhh+pqzr31ftzc3LB27VqsXr0aBw8eVLocagTYebRs7969cHR0lP0kHjc3N5w7dw4zZszQ2FVhb2+P4cOHAwASExMxatQoFBcXIyYmRroLQ1paGhYuXIjq6mrs3LkTixcvRmVlJcrKyrB+/XqNE2ZSU1OxYMEC1NTUSNfEi4qKQmVlpUY9JSUl+Pbbb/HRRx9h8+bNKCgoQHV1tVZuLda1a1d06NCBJ/YQ/UNmZia+++47fPLJJ/fc0qYtaWlpWL58OQDg2LFjmD9/PtauXYuamhqN+VJSUvDll1/igw8+wO7du+uMca++9LDlMjIyEBkZidLSUmRkZGDRokX43//9X+nOXmlpafjss8+wdOlSFBQUaCxbXFyMDz/8EJcvX5amNefe+iAvvvgihg8fjg8//LBe10uNlHgKfn5+ws/P72mG0Op4DYG3t7d47bXXZB83JSVFWFtbCwDC1dVV7N69u848R48eFSEhIQKA2Llzp9i7d69Yu3ataNu2rQAgoqOjRe/evQUAsWbNGvHSSy8JAOLzzz8XQggRHR0t2rRpIwCIn376SYwdO1aMHDlSABALFy6U1pObmyucnJzE2rVrRUVFhZgzZ44AIBwdHYWnp6fsr10IIcLDw4WPj49WxlZKU/z8NxYARGxs7EPni42NFU/ZNrU63ueffy5sbGxEeXm5bGM+zNdffy1MTU1Fu3btxIYNG0T37t2FsbGxACDGjRsnzTdjxgzh5eUl8vLyREJCglCpVOKzzz4TQoj79qXExMQHLrdp0yZha2srAIj4+HgRGhoqQkJChK6urhg7dqw4fPiwGD9+vAgJCRF6enrihRde0Kg9ISFBABBz5syRpjX33vogu3fvFiqVSqSnp8syntyff5LHo/bDB4hjuNQyJycn8e9//1srYycnJ4sePXoIAAKAGDFihLhy5YrGPB988IEAIGpqaqRp8+fPlxqgEEJcunRJ1NTUiKysLI0GKISQmtn27dulaT4+PsLV1VV6PHPmTGFubi4qKyuFEEKo1WoBQLz33ntaed1CCPHxxx8LFxcXrY2vhKb4+W8smkq4HDVqlBg/frxs4z2qwMBAYWJiIn744QchhBDXr18XHh4eAoDYu3evEEIICwsL8fHHH0vLdOnSRfTv3196fL++9LDlanvc33vU1KlTBQCxbt06adqCBQsEAFFYWChNq6qqEtu3bxf5+fkar6c599YHKSsrE0ZGRmL9+vWyjMdw2TDJES65W1zLbt68qbVLgHTv3h2nT5/Gl19+CUtLS+zevRs9e/Z86O5iY2NjAJDuad6pUyeoVKp7nsloYmICAHjhhRekad26dUNmZqb0OCUlBTo6OtLxSLa2tnB2dsaxY8ee7gU+QJs2bXhpDKJ/uHbtGpydnet9vSYmJjA3N5euo9muXTt8+umnAIB9+/YBAHbt2oU33ngDAHDy5EkIIVBaWiqNcb++9LDlavvWoEGDpGk9e/YEAHh6ekrTOnfuDADIysqSpunq6mLMmDFo1aqVxutpzr31QQwNDWFnZ4erV68qsn5qPBgutUylUmn12Bg9PT28+eabSElJQVhYGEpLSxEYGIjCwsIH1nQv9zr4/17TTExMUFVVJT329PTErVu3pBNsysvLcf36dfTp0+dxX84jE0LwLFiif9B2v3nYuv+ub9++AAC1Wg0AGDhwIA4fPozQ0FBcuXIFjo6OGrXe7//zw5ar7VF/X97Q0LDOOAYGBgBQ55jG+2muvfVh2HvpUTBcapm2trB9/vnnGo+trKywdu1aBAUF4datW0hMTJR9nfcza9Ys+Pn5Yc6cOdi/fz/efvttDBgwQKsHfmtzizBRY2Vvb4/U1FSlywBwN8wZGhrC3t4eADBnzhx89913iIqKwoQJE+4ZAO/lSZd7Us29tz5IeXk5MjMz4eDgoMj6qfFguNQyW1tbpKenyz7u0aNHkZ2dXWf62LFjAaDObpjq6mrZa6ilUqnQvn17LFu2DDU1NZg2bRr27dsHMzMzra0zPT0dzzzzjNbGJ2qMvLy88MsvvyhyP+h/3jXr+PHjKC8vR79+/XD69Gl88cUXmDZtmsYF3R+2lfVJl3sazb23PsiBAwdQXl6ucbgB0b0wXGrZoEGDsH//ftnHrampQVhYGO7cuaMxfcOGDejRowf69+8PALCxsQFwt0kfPXoUZWVl0m6h/Px8jWVrxyouLpam/fXXXwCgcYxTVVUVKisrpT9gixcvxuHDh6FWq6Gvr4/CwkJcuHBBY/eO3A4cOABvb2+tjU/UGAUHB+PWrVvYuHFjva+7sLAQ165dkx7v2bMH7u7uGDduHFq0aAEA2LZtG6qqqrB//3789ttvKCgoQEpKCtLT0+/Zlx5luXv1rdqx/tm3/jlfdnY2AgICNLZGNvfe+iDLly/H888/zy2X9FAMl1o2bNgwZGRk4MKFC7KO26pVK5ibm2PQoEF45ZVXMH/+fHTr1g23bt3C9u3bpeOLhg8fjjZt2mDEiBG4cuUKdu3ahU2bNgEA3nrrLSQnJwO4e1xU7a6WzZs3Y8+ePdi+fTu2bt0KAFi4cCHS09MRGxuLLVu2QAiBhQsXIicnB7169cLly5cxduxY/Otf/0L//v3RtWtXODk5SQfzy+n8+fPIyMjA0KFDZR+bqDF75pln8Oqrr2LBggV1rumobUZGRpgxYwZWrFiB119/HUePHkV8fDxUKhXc3NwQGhqKqKgo2NraIi0tDeHh4bh+/TpWrVqFM2fO3LMvPWy51NRUxMbGAgA++ugjXLlyBbt378aqVasAAJ9++il+//13HDx4ECtWrAAALF26FBcvXgQA/PHHH4iPj9foU825tz7Ijh07kJCQgMjIyHpdLzVOKvEU+xf8/f0BQLqA7NOSe7yGoLq6Gp07d8aQIUPwv//7v7KNm5WVhWeeeQZCCJw/fx75+flwcnKCnZ1dnXkrKytRVVUlnckot82bN6Oqqgq+vr7Iz89HcXExCgsLcf78eWzZskX2OzpERETg0KFDuHTpUpO6A0lT/Pw3FiqVCrGxsQgICHjgfHFxcQgMDJRtt6zc4wF3t5r17NkTffv2xZYtW+rl/0h4eDj27NmD9PR0XLhwARYWFujQoUOd+XJzc9GyZUvo6+sDAAoKCmBpafnQ8Z90uUeRkpICJycn6X1qzr31fq5evQp3d3eMHDkS0dHRso2rjc8/Pb1H7YcPEM97i2uZrq4u/ud//gezZs1CZGQk2rZtK8u4tccbqlQqdO/e/YHz6uvrS01ZbqmpqZg2bRqysrKgp6cHKysr6bkuXbrIfovG69evY926dfj666+bVLAkkouVlRU2bdoEX19fzJgxA9988029nd1rYGCAXr163ff52l3JtR41ID7pco/CxcVF43Fz7a33k52djWHDhqF9+/b45ptv6mWd1Pjxr3M9mDhxIlq3bo2ZM2cqXYrs1Go1cnJyEBoaiiNHjkCtVkOtVmP//v148803Zd+F8tZbb6Fdu3YICwuTdVyipsTLywsbN27E6tWrERgYqHFcnzaUlJRoHE9IT6++e+u9/PHHH+jfvz+EENizZ889r9dJdC8Ml/XA2NgYq1atQlxcHH788Uely5GVj48P9u7dCxsbG0yZMgWurq4YOXIk9u7di1WrVsHJyUm2dW3evBlbtmxBVFSU1i9HQtTYjR07FgkJCfjll1/wr3/9655nQD+tyspKrFixAocPH0ZRUREWLlyocRFwenL12VvvJSEhAQMHDoSDgwOOHz+Odu3aaXV91LRwt3g9GTZsGF599VW8+uqrcHNzg5ubm9IlyWbo0KHSyTXausDuH3/8gddeew0REREYMmSI7OMTNUXe3t44fvw4Ro0ahW7dumHZsmUIDQ2VbXx9fX1MnToVU6dOlW1M+j/10Vv/qaioCPPmzcPKlSsRHByM1atX88s8PTZuuaxHX331Fbp27YoXXnihyd66UBvN7/r163jhhRfQo0cPfPnll7KPT9SUderUCWfPnkVwcDAmTZqEkSNHalwyiBqH+giWu3btQteuXREfH48ffvgB69evZ7CkJ8JwWY+MjIywbds2GBgYwMfHhw3+EWRkZMDHxwctWrTA1q1b2eiInoCpqSm++uorHD16FOnp6XBxccHrr7+OGzduKF0aNQBJSUkYMmQIRo0ahf79++OPP/6Q7o9O9CQYLuuZlZUVDh48CH19fQwcOBB//PGH0iU1WOfPn8fAgQPRokULHDx4EK1atVK6JKJGbcCAATh37hyWLFmCHTt2wMXFBe+++y7y8vKULo0U8Ouvv2LUqFHw8PBARUUFjhw5gri4uDpn5xM9LoZLBbRv3x6HDx9Ghw4d4OHhgQ0bNihdUoOzfv16eHh4wMXFBYcOHZLtEk5EzZ2BgQGmT5+OjIwMLF26FNHR0bC1ta1zpxpqmioqKhAfHw9fX1/07dsXarUacXFxOHLkCLy8vJQuj5oIhkuFtGzZEvv370d4eDhCQ0MRHh6OoqIipctS3O3btzF58mRMnDgRERERSEhIgIWFhdJlETU5BgYGiIiIQGpqKr766itcvnwZnp6eeO6557B27Vrcvn1b6RJJRqmpqVi4cCHs7e0RHBwMCwsLHDhwAOfOnZNu4EAkF4ZLBRkYGGDZsmXYtm0btm/fDjc3N8TFxSldlmJiY2Ph5uaGnTt34qeffsKSJUukW60RkXaYmJggIiICv/32G44cOYIOHTogIiICbdq0gZ+fHzZv3qz162SSdmRmZmLp0qXo168fXFxcsGbNGrz22mvIyMjA5s2b4ePjU28X2KfmheGyARgzZgwuXbqEYcOGYfz48fD19cWpU6eULqvenDp1Cr6+vggKCsILL7yAS5cuYdSoUUqXRdTseHl5ISYmBtnZ2fjmm29QWFiI8ePHo02bNggODsYPP/yA3NxcpcukBzh//jy++OILDBo0CA4ODvj444/RvXt37Nu3D2q1Gh999JF0FyIibWG4bCCsra2xZs0aHDt2DHfu3EG/fv0wevRonD59WunStObUqVMYNWoU+vXrhzt37iAxMRFRUVEatzkjovpnaWmJ8PBw7Nu3D1lZWfj3v/+NmzdvIjw8HG3btkW/fv0QGRmJpKQkVFVVKV1us3br1i38+OOPiIiIgL29Pbp3747FixfDwcEBW7duxY0bN7BmzRoMGTIEurq6SpdLzQTDZQMzYMAAnDhxAvv27UNOTg7c3d3h7u6OVatWNYldU38/mLxfv37Iz8/HTz/9hBMnTsDDw0Pp8ojoH9q0aYPp06fjl19+QUFBAfbu3QsPDw+sXbsWHh4eaNmyJTw9PTFv3jzs2LEDt27dUrrkJu3GjRvYsWMH5s2bB3d3d1hZWcHf3x9nzpxBcHAw9u3bhxs3bmD9+vUYM2YML99GiuAdehqoIUOGYMiQIfjll1+wYsUKTJs2De+//z6CgoIQEBCA/v37N5pjZYQQOHHiBOLi4rBp0yb89ddfeOmll6Tb0hFR49CiRQupN3355Ze4dOkSjhw5gmPHjiEuLg6ff/459PT00LNnTzz77LPo3bs3evfuje7du6NFixZKl9/oZGdn49y5czh79izOnj2LkydP4urVq9DX10efPn3g7e2NBQsWwMvLi3t8qEFhuGzgBg8ejMGDByMzMxOrV69GTEwMli9fDnt7e4wbNw7Dhg2Dl5dXg2vcxcXFOHLkCPbu3Ysff/wRarUabm5umDZtGl599VW0b99e6RKJ6Cl17twZnTt3RkREBIC7d9M6evQoTpw4gTNnziAmJga3b9+Grq4uOnXqhF69eqFbt25wdXWVfrhlDcjPz8eVK1dw6dIlXL58GcnJyTh79qx0P3h7e3v07t0b4eHh0hn9Da3nE/0dw2UjYWtri0WLFmHRokVITk5GXFwctm/fjmXLlsHQ0BADBgzA888/L+1Gb926db3Wd/PmTZw+fRqnTp3CoUOHcOLECVRUVKBbt26YNGkS/P390b1793qtiYjqV/v27REYGIjAwEAAd/da/Pnnnzh79izOnTuHc+fOISoqClevXkVNTQ10dHTg4OAgBc0OHTrA1tYWtra2cHBwQNu2baGj0/iP3iorK4NarYZarUZmZiauXr2KjIwMKUzm5+cDAIyNjeHq6opu3brh7bffRq9evdC7d2/eQIIaHYbLRqhHjx7o0aMHPv74Y9y4cQP79+/H/v37sXbtWkRGRgIA7Ozs0LNnT7i6usLZ2RnOzs5wdHREu3btYGpq+kTrLSoqwo0bN5CRkYHU1FSkpqbiypUrSE5OhlqtBgB07NgRnp6eCA8Px5AhQ3jxc6JmTKVSwcnJCU5OTvDz85Oml5eX48qVK9LP5cuXcfr0aWzZsgXZ2dmoqakBAOjr66N9+/aws7ND69at0bp1a9jY2MDa2hrW1tawsbFB69atYWZmhpYtW6JFixYwMjLS+uu6ffs2SkpKcOfOHeTl5Uk/ubm5yMnJkR5fv34dmZmZyMnJkZY1MjKCvb09HBwc0KdPHwQHB0vh2t7evtEc7kT0IAyXjVy7du0QGhqK0NBQAMBff/2F06dP49dff8X58+dx9OhRfP/99ygoKJCWMTIygo2NDWxsbGBiYgJDQ0Po6urC3NwcwN3GWV1djfLycql55ubmoqysTBrD0tISLi4ucHZ2xtSpU/Hss8/C3d0dlpaW9fsGEFGjY2hoiO7du99zb0ZlZSWuX78OtVqNq1evIjMzE5mZmcjNzcWlS5dw7Ngx5OfnIy8vD5WVlXWW19HRgYWFBUxNTWFiYgITExMAgLm5ucbZ0iYmJhrX0S0uLkZFRYX0uLS0VOp5BQUFKCkpQXFx8X1vdmFiYgJra2u0bt1aCr9ubm6ws7ODvb097OzsYGtrW+97lYiUwHDZxLRq1Qq+vr7w9fXVmJ6fn4+MjAzcvHlT41t2SUkJysrKUF1djaSkJABA//79oaurCyMjI7Ro0ULaUlC7lcDR0ZEHjxORVujr68PBwQEODg7w9PR84LwFBQXIzc1FUVERbt26JQXA27dvo6ioCMXFxSgpKYEQos5Z7Ldv30Z2djYuXryIQYMGwcrKCsbGxhp11O7lqd0qamJiAnNzc5iZmcHExASmpqZSkPz7skTNHcNlM2FlZfXQQBgQEAAAWL16dX2URET0VCwtLZ9qb0lcXBwCAwOb9Z3RiLSh8R8pTUREREQNBsMlEREREcmG4ZKIiIiIZMNwSURERESyYbgkIiIiItkwXBIRERGRbBguiYiIiEg2DJdEREREJBuGSyIiIiKSDcMlEREREcmG4ZKIiIiIZMNwSURERESyYbgkIiIiItkwXBIRERGRbBguiYiIiEg2DJdEREREJBuGSyIiIiKSDcMlEREREcmG4ZKIiIiIZMNwSURERESyYbgkIiIiItkwXBIRERGRbBguiYiIiEg2DJdEREREJBuGSyIiIiKSDcMlEREREcmG4ZKIiIiIZMNwSURERESyYbikOtLS0rB8+XIAwLFjxzB//nysXbsWNTU1GvOlpKTgyy+/xAcffIDdu3fXGWPhwoWorq7Gzp07sXjxYlRWVj50OSKi+saeRyQvPaULoIYlNTUVvXr1gpmZGVq3bo3PPvsMqampKC0txY4dO7B582YAwJtvvolz585h69atOHPmDIYNG4ZPP/0Uc+fOxbp16zB37lxkZ2fD2dkZX375Jc6ePQtPT0/ExMTcdzkiIiWw5xHJi1suSYOzszNGjhyJ27dvQwiB5ORkpKWlwcPDA1u2bEFCQgIAYN26dRg2bBisrKzg6+sLNzc3bNu2DQAQFhaG8PBwacwzZ87g0qVL8PDweOByRERKYM8jkhfDJdVhYmICc3NzhISEAADatWuHTz/9FACwb98+AMCuXbvwxhtvAABOnjwJIQRKS0ulMYyNjQEAQUFBAIBOnTpBpVI9dDkiovrGnkckL4ZLuieVSqXxuG/fvgAAtVoNABg4cCAOHz6M0NBQXLlyBY6OjhBC3HdcefHSAAAV6ElEQVT5Wg9bjohICex5RPLhMZf0SAwMDGBoaAh7e3sAwJw5c3Dx4kXEx8fDyMgIW7ZseaRxnnQ5IqL6xJ5H9OQYLumeysrKNB4fP34c5eXl6NevH06fPo0vvvgCu3fvhpGRkTTPw76NP+lyRETaxp5HJB/uFqd7KiwsxLVr16THe/bsgbu7O8aNG4cWLVoAALZt24aqqirs378fv/32GwoKCpCSkoL09HTpEhz5+fnSGI+yHBGREtjziOTDcEn3ZGRkhBkzZmDFihV4/fXXcfToUcTHx0OlUsHNzQ2hoaGIioqCra0t0tLSEB4ejuvXr2PVqlU4c+YMNm3aBAB46623kJycDAAPXa5Dhw5KvmQiasbY84jkw93idE8WFhaIj4/HhQsXMGLEiDpNcN26dViyZAlatmwJfX19AMDUqVNhaWkJABg3btw9x33YckRESmDPI5IPwyXdl4GBAXr16nXf521sbDQeP2qzfNLliIi0iT2PSB7cLU51lJSUoLi4WOkyiIjqBXsekbwYLklSU1ODtLQ0HD58GEVFRVi4cCEyMzOVLouISCuqq6sBgD2PSGbcLU4SHR0dODk54fTp00qXQkSkdbq6ugCA69evK1wJUdPCLZdEREREJBuGSyIiIiKSDcMlEREREcmG4ZKIiIiIZMNwSURERESyYbgkIiIiItkwXBIRERGRbHidy2YqPj4e8fHxGtNOnDgBAAgICNCY7u/vD39//3qrjYhIbpmZmZg9e7bGNLVaDaBuz7Ozs8OSJUvqrTaipobhsplydHSsEy5r/XP6O++8Ux8lERFpzTPPPIOkpCQpUP7dP3venDlz6qssoiaJu8Wbqb59+6JDhw4Pnc/e3h59+/ath4qIiLRHpVIhNDQU+vr6D503ODi4HioiaroYLpuxhzVafX19TJ48uR4rIiLSngkTJqCysvKB83Ts2BE9e/asp4qImiaGy2YsKCjogY22srKyzrFIRESNlZubG9zc3O77PL9QE8mD4bIZ69y5M7p16waVSlXnOZVKhe7du6NLly4KVEZEpB1hYWH33WNTWVmJwMDAeq6IqOlhuGzmwsLCoKurW2e6np4ewsLCFKiIiEh7goODUVVVVWe6SqVC79694eLiokBVRE0Lw2UzFxISgurq6jrTq6qqMH78eAUqIiLSHnt7e7i7u9fZY6Orq4uJEycqVBVR08Jw2cy1b98eHh4e0NH5v4+Cjo4OPDw8YGtrq2BlRETaERYWptHzAKC6uprX8yWSCcMlITQ0VONbvEql4i5xImqy/nlcpY6ODry9vdG+fXuFKiJqWhguCQEBAXV2Efn5+SlUDRGRdtnY2OD555+XjjevvQYmEcmD4ZLQqlUrDBkyBHp6etDV1YWvry+srKyULouISGtCQ0MhhABwN1y+9NJLCldE1HQwXBKAuxcXrqmpgRACEyZMULocIiKtevnll6GrqwuVSoURI0agVatWSpdE1GQwXBIA4KWXXoKBgQH09fXx4osvKl0OEZFWmZubY9SoURBCcJc4kcz0lC6AGgYTExOMGTMGAGBqaqpwNURE2hcSEoJ9+/Zh5MiRSpdC1KQwXJIkJCTknnfrISJqikaOHIlJkyahRYsWSpdC1KQ02nB54sQJLF26VOkympSamhoAwLp16xSupGmZPXs2PDw8lC6DmgBeh1F+VVVVfF9l5uHhgdmzZytdBimo0R5zqVarsXnzZqXLaFJ0dHTqXFiYns7mzZuhVquVLoOaiM2bNyMzM1PpMpoUPb1Gu42lQUpKSsKJEyeULoMU1uj/V8XHxytdAtF98TADktusWbMQEBCgdBlE98StwAQ04i2XRERERNTwMFwSERERkWwYLomIiIhINgyXRERERCQbhksiIiIikg3DJRERERHJhuGSiIiIiGTDcElEREREsmG4JCIiIiLZMFwSERERkWwYLomIiIhINgyXRERERCQbhksiIiIikg3DJRERERHJRk/pApSSlZWF+Ph4pKSkwMrKCs8//zw8PDxw7do1VFdXo0uXLigoKMDAgQMxd+5cTJw48ZHGzczMRFRUFL7//ntcuXIFRkZGWn4l8ktOTkZycrLGtHbt2mHw4MEKVVS/UlJSkJiYCAcHB7Ro0QLPPfec0iURPTX2vPtjz2PPI3k1yy2Xn376Kfr374/y8nJERETgrbfeQmVlJUaMGAEvLy9cuXIFAKCnpwcrKyuYmpo+8thpaWk4duwY1Go1hBDaegmyKy8vl37v0aMH3N3dMX36dISGhkIIgeeff14r62pofvzxR3z11VcIDQ2Fj48PLly4gM8++0zpsoieCnteXex5d7HnkTY0u3C5fPlyREZGIiYmBnPnzkXPnj1hZWWFYcOGYc+ePejYsSMKCgoAAGZmZjh69CjGjRv3yON7e3tj0KBB2ipfa+bPn4+amhrpcefOneHs7AyVSoWQkBDo6upqbV0NRXJyMpYtW4avv/5aer2TJ0/G5cuXkZCQoHB1RE+GPe/e2PPY80h7mlW43LRpE2bNmoWPPvoIAwcOrPO8kZERvv76a/z1119PtR59ff2nWr6+/f7771i5cmWd6UZGRtDV1YWOjnwfk/utS2nV1dUYN24cQkJC6jz30UcfYcqUKSguLlagMqInx553b+x57HmkXc3qmMuPP/4YAPDCCy/cd56+fftKu3bKysoQHx+PNm3aYOjQoQDu7gLasWMHZs6ciWPHjmH37t1wdXVFaGhonYakUqlw8eJFxMbGwtHRESEhIRpN+Pbt24iNjcXFixfRsWNHTJo0SdodlZaWhujoaCxatAi7d+/GhQsXMGvWrHs28ZKSEqxfvx45OTlwc3PD4MGDYW5uDh0dHahUqgeuKzExEcHBwSguLkZMTAz09fXh7+9/3/cnNTUV0dHR+PDDD5GWloa4uDi0bt0akyZN0qit9r2xs7ODjo4OIiIiHriulJQU/Pzzz7h16xb69euHESNGPPY6a/+9/vjjD3h4eGDo0KEwNjZ+pPd7+/btyMrKQnBwcJ3XbGtrCzMzM7z//vtYsmTJfd8booaGPY89jz2PFCGegp+fn/Dz83uaIZ54vNjYWPE45aekpPy/9u4+JsoCjgP49whEOqHIF5LEeEkhwg0bNU5xSu9KuUzIMYIVm47E0hzdHzmGNlhUf7BluoxWuIWgohhqxksW0QtSKLSmkSc2TrA4zBFvcgf8+qPdkwQHd/rogff9bG093HPP73eP5/d++LycABB3d3fp7+8fd/0zZ87Is88+KwDk7bffFhGR7du3y7Rp02T27NlSWFgoCxYsEC8vLwEgq1evVp6bk5MjAKS0tFRSUlIkJSVFAEhOTo6yzm+//SbPPPOMlJeXS0NDg0REREhISIhcvnxZdu/eLXfffbcAkIKCAlm4cKEAkO+++25EnyaTSUJCQmT37t1iNptFr9cLAAkMDJSYmJhxa9XU1EhSUpIAkCNHjkh5ebmy7cWLF4u7u7uyXFBQIH5+fgJAysrK5LnnnpO4uDgBIJmZmcp6er1eCgsLpaenR4qKimTatGkiIjZrvfLKK7JkyRLp6OiQiooK0Wg0kpub61DN33//XZYsWSL5+fliNBrl0UcfleDgYOnr6xt3H4iIxMbGSmRkpM33Q1pamtx7771jvWVGBUD27t1r17pq/30i+9n75+Ro7qi9PUfeT8w8Zp4zMu9Gfo7TzeFIztiwz2WGy8rKSgEgYWFhdj+ntbV1WNCKiKxZs0a0Wq18+umnIiLS1tYmOp1OACjBYQ3aAwcOKM9buXKlBAYGKsuPP/64lJaWKsvHjh0bFh5btmxRglZE5Ndff5WhoaERPW7atEl8fHzEYrGIiIjRaBQA8sYbb9hda9u2bQJgxPb/H7QiogT5Z599pvwsNjZW5s+fLyIiZrNZpk+fLk1NTcrjGzduVP5/tFp33HGHZGdnK8vh4eESHR1td03ra1y3bp2yfOTIEdFoNHLw4MFx98HQ0JBMnTpVVqxYIbZkZWUJALl06ZLNdUbD4XJyuBWHS2YeM88ZmcfhcvJTY7h0mcPi7u6Ov9TRrpjUarXw8fFRzlOZPXs23nrrLSxbtgyVlZXKoSRg+KGokJAQfPnllwCAixcvorKyEpGRkThx4gQAoLu7G1FRUejt7QUA5dBGYmIiACA0NHTUHs+ePTvsUNCcOXNw33334dtvv7W7liO0Wu2I1xYREaFs28PDA97e3njsscewa9cuLF++HFu2bBlzm0ePHsX9998PAKirq4OIoK+vz+6aBoMBlZWV+Pzzz5XH4+Li8Mcff2DWrFnj7oOLFy/iypUr8Pf3t9njrFmzAAANDQ145JFHxtlLRM7HzGPmMfPIWVxmuJw3bx6Af4Opr69v2Hkpttg6qdsaalYPPfQQAMBoNNrcloeHBywWi9IDAOj1esyYMcOuGrbExMTg6NGjqKurg06nQ39/P9ra2vD000/bXcsRo+0TrVaLgYEBZfn9999HcnIyVqxYAZ1Oh4KCAsycOdPmNhcvXozS0lIcPHgQTz75JAIDA9Ha2mp3zTNnzgAY+cFoDcfx9sGpU6cAAD4+PjZ7tD6vqamJQUuTAjOPmcfMI2dxmavF77nnHjzwwAMYHBzEL7/8Mua64uC92qZMmQJPT0/MnTvX7vUB4OTJkyMe6+rqcqj2a6+9hvj4eOj1elRVVSEjIwOLFi3Cm2++qXote8XFxcFgMGDTpk2or69HVFSUEoaj0ev1+Pjjj5Gfn48XXngBnp6eDtWzfmiWl5ePeMxkMo27D6y3H7l06ZLNGtarJv38/BzqjchZmHnMPGYeOYvLDJcAsG3bNgD//sU2m82jrmMymfDJJ5+MuZ0rV64MW/7+++/R39+Phx9+2K4+QkNDcdtttyErK2tYHyaTCYWFhXZtw0qj0cDf3x95eXkYGhpCeno6Kisr4e3t7XCtwcFBh2qPpqenB/n5+bjrrruQl5eHr7/+Gt3d3SgqKhq1Vn19Pd59912kp6cP+2YPRz7swsPD4ebmhsOHDw97DefOncNPP/007j7w9vZGSEgI2tvbbdZoa2sDAAQFBdndF5GzMfOYecw8cgaXGi5Xr16N7OxsVFdXY+3atSPu4dXS0oLc3FwkJycD+PccFQAj1uvs7ERLS4uy/MUXXyAqKkq58bD1vJ6rz+8ZHByExWKB2WyGr68v0tLSUFtbi6VLl2LPnj0oKChAUlKScr6R9XDS1b9ZHj9+HImJicPuSffOO++guroaRqMRHh4e6OzsxOnTp5XDJ/bUsh6+qa+vR01NjfJB0tXVhYGBAWU/AFBqX31+0MDAACwWC/r7+zE0NISsrCxlGzqdDvPmzVNq/L+W9fDPoUOHMDAwgKqqKjQ2NuLy5cs4e/Yszp8/P25Nf39/pKSk4Oeff0ZCQgKOHz+OHTt2IDMzE0899ZRd+2DhwoXjBu2dd96JsLAwm+sQTTTMPGYeM4+c4nouB5pMV4tfraSkRCIiIsTLy0uWLl0q6enpsnbtWtm6datyy46WlhZ5+eWXBYCEh4fLsWPHREQkNTVVtFqtrFy5Unbs2CHr1q2TmJgYOX/+vIiIlJWVSVhYmACQ9PR0MRgMUlxcLMHBwQJA9Hq9dHR0SE9Pj3K7DgDi4+OjXNlXUlIioaGhAkASEhKksbFRREQyMjIEgJw4cUJ5LYcPH5apU6cq27H+N3fuXKmoqBARGbOWiEhzc7P4+fmJr6+vfPTRR9LY2CgbNmwQNzc3ASBJSUlSUVEhhw4dksDAQAEgGzdulObmZikuLpagoCABIK+//roYDAbx8vKSBQsWyHvvvSdbt26Vl156Scxm86i1RESSk5PFzc1N/Pz85IMPPpDs7Gxxc3OTjIwMu2r++eef0tnZKatWrVJeY2BgoPz444/KaxxvH+zZs0c8PT2lu7t71PeMTqeTzZs3O/xeA68WnxTs/XOaTFeLX42Zx8y7WZnHq8Unv2vNmau4zq2IRtPd3S0//PCDmEwmu5+Tmpoq/v7+0t/fL6dOnZLm5ubr6sFkMkl9fb309vaOu67FYhGDwTDsZ/v375eioiLp6OiQpqYmOXnypHz11Veyfft2WbZsmd21zGazXT2MZ2hoSHp6euTvv/+W+vp66erqsqtWe3u7EsYiIn/99dc11W9tbZWGhoZh27raWPtg+fLlUlZWNuLnp0+fFk9PTzl37pzD/XC4nBxu9eHSipn3H2bejck8DpeTnxrDpctcLT4arVaL6Ojoa3rulClTEBkZed09zJgxw+4rGt3d3RESEqIsGwwGpKeno7W1Fe7u7pg+fbryWHh4OOrq6uyu5eHhocpXuGk0Gtx+++0AgAcffNDuWv+/stLX1/ea6vv7+495e42x9sGuXbvw4osvIi4ubtjVmvn5+di5cyeCg4OvqSeiiYKZ9x9mHjOPbhyXOudSDb29vRPm+1aNRiPa29uRnJyMb775BkajEUajEVVVVXj11VeRlZXl7BYnlYCAAGzYsAG5ubnKz4qLi+Hl5YXU1FQndkbkPMy8Wxczj24UDpd2slgs2LlzJ6qrq9HV1YXMzExcuHDBqT3FxsaivLwcM2fORFpaGubPn4+4uDiUl5fjww8/HPYbP9ln1apVSExMxIEDB1BTUwNfX1/k5OQ4uy2im46Z5xqYeXQjuPRhcUd4eHhg/fr1WL9+vbNbGeaJJ55QviFDROy+ETHZFhQUxNtvkMtj5rkOZh6pjf9yeQthyBKRK2HmEU1MHC6JiIiISDUcLomIiIhINRwuiYiIiEg1HC6JiIiISDUcLomIiIhINRwuiYiIiEg1HC6JiIiISDUcLomIiIhINRwuiYiIiEg1HC6JiIiISDUcLomIiIhINRwuiYiIiEg17s5u4HolJCQ4uwUiopsmLy8P+/fvd3YbRKOqra1FdHS0s9sgJ5u0w2VAQADi4+Od3QbRmOLj4xEQEODsNugWwcyjiS46Oho6nc7ZbZCTTdrhUqfT8bd3InIpzDwimgx4ziURERERqYbDJRERERGphsMlEREREamGwyURERERqYbDJRERERGphsMlEREREamGwyURERERqYbDJRERERGpZsLdRL2kpAQajcbZbRA5Bb+BxTUx84joVjKhhsvNmzfzu8LJpfGrIl3LokWLsHfvXme3QUSkqgk1XOp0On4nKRG5jDlz5uD55593dhtERKriOZdEREREpBoOl0RERESkGg6XRERERKQaDpdEREREpBoOl0RERESkGg6XRERERKQaDpdEREREpJrrvs/lhQsXsG/fPjV6ISKaFJh5RES2XfdwWVtbizVr1qjRCxHRpMDMIyKyTSMi4uwmiIiIiOiWsJ/nXBIRERGRajhcEhEREZFqOFwSERERkWo4XBIRERGRajhcEhEREZFqOFwSERERkWo4XBIRERGRajhcEhEREZFqOFwSERERkWo4XBIRERGRajhcEhEREZFqOFwSERERkWo4XBIRERGRajhcEhEREZFq/gEu3awqhNDY8wAAAABJRU5ErkJggg==;" vertex="1" parent="1">
          <mxGeometry x="90" y="60" width="575.49" height="560" as="geometry" />
        </mxCell>
        <mxCell id="49JLv81aL3xaGzIu4lqN-10" value="" style="shape=flexArrow;endArrow=classic;html=1;rounded=0;width=12.452830188679245;endSize=3.3962264150943398;fillColor=#dae8fc;strokeColor=#6c8ebf;" edge="1" parent="1">
          <mxGeometry width="50" height="50" relative="1" as="geometry">
            <mxPoint x="362.74" y="390" as="sourcePoint" />
            <mxPoint x="392.74" y="390" as="targetPoint" />
          </mxGeometry>
        </mxCell>
      </root>
    </mxGraphModel>
  </diagram>
</mxfile>
